<?xml version="1.0" encoding="utf-8"?>
<!-- Generator: Adobe Illustrator 22.0.0, SVG Export Plug-In . SVG Version: 6.00 Build 0)  -->
<svg version="1.1" id="Calque_2_1_" xmlns="http://www.w3.org/2000/svg" xmlns:xlink="http://www.w3.org/1999/xlink" x="0px"
	 y="0px" viewBox="0 0 5530.4 4606.3" style="enable-background:new 0 0 5530.4 4606.3;" xml:space="preserve">
<style type="text/css">
	.st0{fill:#A22E2B;}
	.st1{fill:#DFE0E3;}
	.st2{fill:#C4C7CC;}
	.st3{fill:#EBECED;}
	.st4{fill:#E0E1E4;}
	.st5{fill:#B0B4BB;}
	.st6{fill:#832623;}
	.st7{fill:#FCFCFC;}
	.st8{fill:#FEFEFE;}
	.st9{fill:#A12E2B;}
	.st10{fill:#B1B5BC;}
	.st11{fill:#B5B9BF;}
</style>
<path class="st0" d="M3073.2,2391.6"/>
<g>
	<path class="st1" d="M2278.6,4609.9c0-0.9-0.1-1.7-0.1-2.6c7-6.7,16-4.8,24.2-4.8c102.4-0.2,204.8-0.1,307.1-0.1
		c194.8,0,389.7,0,584.5,0.1c8.9,0,18-1.3,26.5,2.7c1.9,1.1,2.4,2.7,1.7,4.8C2907.9,4609.9,2593.2,4609.9,2278.6,4609.9z"/>
	<path class="st2" d="M3222.5,4609.9c0-0.9,0-1.8-0.1-2.7c5.3-5.4,12.2-4.6,18.7-4.6c183.3-0.1,366.6-0.1,549.9,0
		c5.7,0,11.4-0.1,16.6,2.7c1.9,1.1,2.4,2.7,1.7,4.7C3613.7,4609.9,3418.1,4609.9,3222.5,4609.9z"/>
	<path class="st3" d="M4.9,998.6c-0.8,0-1.7,0-2.5-0.1c0-40.6,0-81.3,0-121.9c0.8-0.1,1.6-0.2,2.4-0.1c4.9,4.1,4.8,9.9,4.9,15.5
		c0.3,30.4,0.3,60.8,0,91.1C9.6,988.7,9.7,994.5,4.9,998.6z"/>
	<path class="st4" d="M3809.3,4609.9c0.1-0.9,0.1-1.8,0.2-2.6c11.3-6.8,22.7-6.9,34,0.1c-0.1,0.8-0.1,1.7-0.2,2.5
		C3832,4609.9,3820.6,4609.9,3809.3,4609.9z"/>
	<path class="st5" d="M3843.5,4607.3c-11.3,0-22.7-0.1-34-0.1c-195.7,0-391.4-0.1-587.1-0.1c-311.4-0.1-622.7-0.1-934.1-0.2
		c-3.3,0-6.6,0.2-9.9,0.3c-201.7-0.2-403.5,1.4-605.2-0.9c-244.7-2.8-489.3-1-734-2.4c-104.2-0.6-206.7-10.4-305.5-47.4
		c-103.5-38.8-198-92.7-284-161.9c-80.3-64.6-150-139.1-207.6-224.7c-63-93.8-108.1-195.3-125-307.9c-4.8-31.6-6.3-63.7-6.3-95.8
		c0-197.9,1.3-395.9-0.7-593.8c-3.6-354.3-1-708.5-2.2-1062.8c-0.1-35.9-0.2-71.8-0.3-107.7c-0.8-331.1-1.6-662.2-2.4-993.3
		c0-3.3-0.2-6.6-0.3-9.9c0-40.7-0.1-81.4-0.1-122.1c3.7-127.9,35-248.7,93.9-362.2c50.7-97.8,117.5-182.9,199.9-256.3
		c141.6-126.1,307.8-200.2,493-234c47.7-8.7,95.9-13.3,144.5-15.8c38.7-2,77.3-1.7,116-1.7c807.2-0.2,1614.4-0.3,2421.7-0.3
		c110.1,0,220.1-1.5,330.1,0.9c112.2,2.5,220.4,27.2,323.9,70.8c85.7,36.1,165.2,83.1,236.6,142.8
		c84.1,70.2,153.4,152.9,206.9,248.7c49,87.8,80,181.7,96.4,280.6c9.8,59.3,9.9,119.2,9.6,179.1c-0.5,136.5-0.4,273-0.6,409.5
		c0,2.8-0.1,5.7-0.2,8.5c-6.9-0.5-7.2-6.8-9.2-11.1c-20.7-44.3-38.9-89.7-55-135.9c-8.2-23.4-20.4-43.2-40.9-57.5
		c-4.6-3.2-7.5-7-7.2-12.9c0.2-72.8,0.1-145.5,0-218.3c0-20.8-0.9-21.6-21.4-21.8c-4.3,0-8.5,0-12.8,0c-1459.7,0-2919.4,0-4379.1,0
		c-36.8,0-33.4-3.7-33.4,33.5c-0.1,923.5,0,1847.1,0,2770.6c0,32.2-2.3,29.6,30.1,29.6c1461.1,0,2922.2,0,4383.4,0
		c35.8,0,33.2,2.9,33.3-32.6c0.1-141.2,0-282.5,0-423.7c0-7.9-0.4-15.8,0.7-23.6c0.8-9.1,7.6-13.7,14-18.5c30-22.4,55-48.9,69.7-84
		c24.8-59.4,22.5-116.1-18.3-168.2c-14.7-18.8-34.6-32-54.5-44.8c-5.5-3.5-12.3-6-11.3-14.5c-0.4-118.2-0.1-236.4-0.2-354.5
		c0-9.4,0-18.8-1.8-28.1c-0.8-5,2.6-6.9,6.4-7.5c37.1-6.2,72.8-2,107,14.1c2.2,1,3.7,2.9,3.5,5.6c-5.3,5.1-2.7,11.6-2.7,17.5
		c0,362.8,0.2,725.5,0.4,1088.3c0.1,124.8-18.1,246.9-57,365.5c-35,106.8-86.6,205-158.2,291.9c-85,103.1-189.5,180.3-312.6,232.4
		c-82.7,34.9-169.1,54.9-258,65.1C3875.5,4605.7,3859.4,4606.2,3843.5,4607.3z"/>
	<path class="st6" d="M4679.5,2543.1c-37.2-17.5-75.8-23.6-116.2-14.1c-4,5.4-10.5,5.9-16.2,8c-68.4,25.7-113.6,72.6-125.7,145.7
		c-10.5,63.4,8.7,119.4,52.1,166.9c22,24.1,48.9,41.3,77.4,56.4c5.7,3,12.7,4.4,15.2,11.7c24.2,14.7,48.4,29.9,66.4,52.1
		c42.5,52.4,44,110.2,20.4,170.6c-16.5,42.1-48.5,71.1-84.1,96.9c-5.7,10.3-16.4,14-25.9,18.9c-50.4,26.1-102.9,47.5-155,69.8
		c-83,35.5-166.9,68.5-251.1,101c-59.3,23-111.1,0.1-131.1-60.1c-28.7-86.7-61.8-171.6-99.7-254.5c-26.9-58.8-52.2-118.5-87.3-173.2
		c-7.4-11.6-15.8-22.3-24.4-32.9c-21.5-26.7-65.1-17.7-80.6,4.3c-11,15.6-19.7,32.2-27.9,49.2c-38.4,78.9-99.7,133-180.6,165.3
		c-53.4,21.4-108.8,22.5-164.4,11.1c-78.3-16.1-143.7-54.4-191.9-119c-29-38.9-45.4-83.6-53.2-131.4
		c-14.3-87.6,1.1-168.5,55.9-239.7c62-80.7,145.3-122.4,245.9-132.1c19.3-1.9,38.6-2.3,57.9-2.6c54-0.8,80.3-46.7,53-93.6
		c-25.3-43.4-57.4-82-88.9-120.9c-64.5-79.7-129.9-158.4-203.7-229.9c-38.6-37.4-40.3-82.6-6.6-124.2c19.9-24.6,41-48.2,63-70.9
		c26.3-27.1,51.7-55.1,78.7-81.5c52.3-51.3,105.6-101.4,163.6-146.1c26.3-20.2,54.3-37.9,84.7-51.2
		c92.5-40.5,201.7,19.1,218.8,119.2c5.1,29.8,6.5,60.1,12,89.8c5.7,30.9,14.6,60.4,30.2,88c22.1,39,54.8,63,98.5,71.9
		c43.9,9,87.4,8.5,129.6-8c62.1-24.2,112.3-99.7,114.3-166.5c1.8-61.8-22.3-109.6-70.3-147c-24.3-18.9-50.1-35.4-76.6-51.1
		c-56.3-33.4-84.7-84.4-87.4-148.4c-1.6-37.8,13.7-71.7,39.3-100.6c27.3-30.9,62.3-50.4,98-68.7c99.1-50.9,203.8-87.6,309.9-120.7
		c33.8-10.5,67.4-21.9,102.7-27.1c17.3-2.5,33.8-0.7,47.8,11.2c24.8,13.7,39.2,35.1,48.5,61.4c18.1,51.3,38.1,102,61.8,151
		c33.3,75.4,65.4,151.4,109.4,221.5c8.3,13.2,17.3,26,24.7,39.6c10.7,19.7,28,26.2,48.6,24.9c21.6-1.3,40-8.8,50.5-30.3
		c22.1-45,48.1-87.7,82.5-124.7c53.5-57.5,117.4-96.9,196.7-104.6c109.8-10.5,264.8,37.9,323.6,199.2
		c65.9,180.7-44.8,374.3-234.3,409.3c-30.2,5.6-60.6,8.7-91.4,7.2c-25.4-1.2-47.1,5.6-62.8,27.9c-11.7,16.6-13.1,32.8-3.8,50.3
		c15.9,30.1,35.1,58.1,55,85.7c63.4,87.9,137.3,166.9,211.5,245.5c19.8,20.9,40.7,40.8,61,61.2c41.4,41.6,40.2,93.6-1.7,134.8
		c-101.3,99.8-208.8,192.7-317,284.8c-46.9,39.9-98.7,63.5-160.6,63.5c-79.2,0.1-141.9-51.3-158.3-129.2
		c-5.3-25.2-4.1-50.7-5.9-76.1C4797.8,2650.5,4760.6,2582.7,4679.5,2543.1z"/>
	<path class="st7" d="M4566.1,1134.9c-20.2-8.8-41.3-10.9-62.3-5.1c-149.7,41-296.8,88.9-433,165.4c-36.1,20.3-67.1,45.9-84.9,84.3
		c-31,66.8-5.9,153.4,57.1,196.9c24.4,16.9,51,30.5,75,48.1c38.8,28.5,71.7,61.3,83.9,110c26,103.8-49.3,233.6-177.9,236.4
		c-20.4,0.5-40.6-0.3-60.6-4.1c-68-12.7-105.4-57.7-126-120.2c-13.7-41.6-15.8-85.1-22-128c-11.4-77.8-74.2-133.5-152.5-135.1
		c-28.7-0.6-55.6,8.3-81.1,21.7c-56.1,29.6-103.5,70.8-149.8,113.2c-75.3,68.8-147,141.3-213.5,218.8c-40.5,47.1-38.9,87.3,5,131.6
		c102.6,103.5,195.7,214.9,280,333.7c3,4.2,5.7,8.7,8.4,13.1c13,21,17.6,43.1,5,65.6c-13.1,23.4-34.4,34.2-61.1,33.8
		c-51.3-0.6-102.1,4.5-150.1,22.9c-108.7,41.8-183.5,116.5-205.1,233c-27.3,147.1,39.1,317.6,241.6,361.9
		c160.9,35.1,288-68.2,339.4-170.8c7.8-15.6,14.2-31.9,24.2-46.3c9.1-13.1,19.8-24.1,36-28.1c20.1-4.9,38.1-2.8,53,13.6
		c29.6,32.6,49.3,71.3,68.3,110.2c56.1,115.2,106.9,232.6,146.6,354.7c18.5,56.8,68,79.8,123.8,58.4
		c129.6-49.8,258.6-101.4,384.7-159.8c17.5-8.1,34-18.2,51-27.4c0.2,3.3,0.4,6.6,0.4,9.9c0,155.4-0.1,310.9,0.3,466.3
		c0,11.5-2.7,16.9-14.8,15.1c-2.8-0.4-5.7-0.1-8.5-0.1c-1470.2,0-2940.3,0-4410.5,0c-4.7,0-9.5-0.2-14.2,0c-6.8,0.4-9.4-2.7-9-9.2
		c0.2-3.3,0-6.6,0-9.9c0-934.9,0-1869.8,0-2804.8c0-22.1-2.4-19.7,19.7-19.7c1472.5,0,2945.1,0,4417.6,0c19.4,0,19.4,0,19.4,18.7
		c0,71.8,0.1,143.6-0.1,215.4C4569.3,1124.4,4571.7,1130.5,4566.1,1134.9z"/>
	<path class="st8" d="M4566.2,2917.8c-47.8-23-90.8-51.4-119.9-97.7c-70.6-112.4-17.1-254.1,110-290c2.2-0.6,4.6-0.7,7-1.1
		c6.7,0.9,6.1,5.9,6.1,10.7c0,122.6,0,245.3,0,367.9C4569.4,2911.2,4570.2,2915.3,4566.2,2917.8z"/>
	<path class="st9" d="M4297,2714.1c0.5,86.9,31.9,160.9,92,223.7c31.4,32.9,68.2,57.7,108.1,78.3c10.1,5.2,19.7,11.1,29.1,17.5
		c25.8,17.7,30.2,40.6,13.7,67.9c-12.2,20.1-30.4,33.2-50.3,44.1c-38.1,20.9-78.2,37.7-118.1,54.6c-67.2,28.4-134.9,55.6-202.5,83.2
		c-14.4,5.9-29.1,10.9-43.4,17c-9.3,4-13.3,1.4-16.3-8c-14-43.5-30-86.3-47.6-128.4c-17.7-42.1-35.7-84.1-54.7-125.6
		c-24.7-54-48.9-108.2-80.6-158.7c-23.5-37.5-49.8-72.7-89.6-94c-74.1-39.7-175.2-16.5-226.4,58.7c-16.8,24.7-27.1,52.8-42.8,77.9
		c-31.7,50.5-75.2,87.9-134.8,96c-95,13-200.2-39.6-216-153.7c-5.8-42-4-82.5,17.4-120.5c27.9-49.6,69.4-82.2,123.7-98.3
		c30.8-9.2,62.6-11.9,94.8-11.7c73.9,0.3,131.9-30.8,168.2-95c29-51.3,30.1-106.2,5.3-160.3c-21.8-47.4-54.7-87.8-86.6-128.6
		c-33-42.2-66.9-83.7-101.7-124.4c-34.3-40-68.7-80.1-107.4-116.2c-7.5-7-8.4-12-1-19.6c40.3-41.7,78.8-85.2,120.6-125.3
		c52.9-50.8,105.1-102.7,167.4-142.6c9.1-5.8,18.8-10.9,28.7-15.2c25-11,50,4.7,52.6,32.6c3.8,41.6,8.5,83,19.8,123.5
		c16.2,58.2,41.9,111.1,86.5,153.1c39.9,37.6,87.8,58.9,141.5,68.4c27.5,4.9,55.2,6.7,82.9,5.4c69.4-3.3,131.3-26,184.6-71.4
		c58.4-49.7,93.7-113,106.7-187.5c15-85.7-2.5-164.5-58.4-233.4c-40.3-49.7-92.7-83.6-146.8-115.4c-30.2-17.8-32.3-52.9-3.3-72.3
		c47.7-31.8,99.9-54.7,152.8-76.3c75.9-30.9,153.6-56.7,232.3-79.6c7.9-2.3,11.3-1.5,14.2,6.7c26.1,71.8,58,141.1,89.6,210.5
		c31.7,69.6,67.6,136.7,109.1,201.2c26.2,40.7,61.4,65,107.4,75.7c72.8,17,164.4-18.5,197.5-91c18.7-40.8,42.9-78.5,75.4-110.2
		c70-68.1,154.7-70.5,234.8-25.9c47.6,26.5,74.1,69.8,83.7,120.4c16.4,86.3-20.4,176.4-118.3,213.9c-35.3,13.5-72,17.6-109.5,16.3
		c-37.3-1.3-72.2,7.3-103.3,27.8c-44.1,29.1-71.8,69.8-81.1,122.3c-8.5,48.2,9.7,89.4,34,129.1c38.1,62.4,82.3,120.2,130,175.6
		c32.3,37.4,64.8,74.6,99,110.3c26.1,27.2,51.3,55.2,77.3,82.5c5.8,6.1,4.9,9.6-0.5,15c-41.5,41.2-83.6,81.6-128,119.6
		c-42.9,36.7-85.1,74.1-128.2,110.5c-17.9,15.1-35,31.3-54.7,44.4c-21.3,14.2-44.7,16.6-69,15c-12.8-0.8-27.3-18.4-30.8-33.7
		c-2.9-13-2.7-26.2-2.8-39.3c-0.6-58.7-12.2-115.2-39.7-167.2c-50-94.3-127.5-154-233-172.8c-96.4-17.2-180.6,10.5-253.5,76
		c-57.7,51.8-89.2,116.4-99.8,192C4295.6,2690.3,4297,2702.3,4297,2714.1z"/>
	<path class="st10" d="M1183.2,3061.7c-185.6,0-371.3,0.1-556.9-0.1c-16,0-32-1.9-48-1.9c-9.5,0-9-5.7-9-12.1
		c-0.4-37.3,2.7-74.5,6.4-111.4c6.4-62.8,17.5-124.9,33.5-185.9c31.1-118.2,76-230.3,150.3-328.6c74-97.9,167-168.4,289.9-193.5
		c116.3-23.7,226.1-5.6,328.1,54.2c98.9,58,171.3,142.4,229.7,239.6c68.5,114,112.4,237.5,137.6,367.6
		c8.9,46.2,15.7,92.9,15.3,140.2c0,0.5,0,0.9,0,1.4c1.4,30.5,1.4,30.5-29.8,30.5C1547.9,3061.7,1365.6,3061.7,1183.2,3061.7z"/>
	<path class="st10" d="M1164.3,2075.9c-205.6,2.6-381-166.9-379.1-380.7c1.9-208.9,168.5-376.3,380.1-375.8
		c213.8,0.5,377.1,175.8,377,379.1C1542.1,1906.6,1370.7,2078,1164.3,2075.9z"/>
	<path class="st11" d="M3197.6,1401c-216.3,0-432.7-0.2-649,0.4c-14.8,0-18-4.2-17.7-18.2c0.9-39.2,0.9-78.4,0-117.6
		c-0.3-14,2.9-18.2,17.8-18.2c257.9,0.5,515.8,0.4,773.7,0.4c175.2,0,350.5,0,525.7,0c18,0,18,0,18,18.6c0,39.2-0.6,78.4,0.3,117.6
		c0.3,13.5-3.1,17.4-17,17.4C3632.2,1400.9,3414.9,1401,3197.6,1401z"/>
	<path class="st11" d="M2918.2,1616.7c122.8,0,245.5,0.2,368.3-0.3c12.6-0.1,15.9,3.3,15.7,15.8c-0.8,42-0.6,84-0.1,126.1
		c0.1,9.9-1.7,14.1-13,14.1c-246.9-0.3-493.9-0.3-740.8-0.1c-11.1,0-14.7-3.5-14.6-14.6c0.5-42,0.6-84,0-126.1
		c-0.2-11.7,3-15.1,14.9-15.1C2671.8,1616.8,2795,1616.7,2918.2,1616.7z"/>
	<path class="st11" d="M2900.8,2314c117.6,0,235.2,0.2,352.7-0.3c13.2-0.1,17.9,2.5,17.6,16.8c-1,42-0.6,84-0.2,126.1
		c0.1,9.7-2.5,13-12.6,13c-237.5-0.3-475-0.3-712.5,0c-11.1,0-14.8-3.4-14.7-14.6c0.5-42,0.6-84.1,0-126.1
		c-0.2-12.1,4.2-15.1,15.6-15.1C2664.7,2314.1,2782.7,2314,2900.8,2314z"/>
	<path class="st11" d="M2812.9,1962.7c89.2,0,178.5,0.2,267.7-0.2c10.6,0,14.9,2.1,14.6,13.9c-0.7,43-0.5,85.9-0.1,128.9
		c0.1,9.7-2.5,13-12.6,12.9c-178.9-0.3-357.9-0.3-536.8,0c-11.1,0-14.8-3.4-14.7-14.6c0.5-42,0.6-84,0-126.1
		c-0.2-12.1,4.2-15.2,15.6-15.1C2635.4,1962.9,2724.1,1962.7,2812.9,1962.7z"/>
	<path class="st11" d="M2750.5,3175.5c-68,0-136-0.4-204,0.3c-12.9,0.1-15.7-3.8-15.5-16c0.7-41.6,0.5-83.1,0.1-124.7
		c-0.1-9.6,2.4-13.1,12.6-13.1c138.9,0.3,277.7,0.3,416.6,0c10.2,0,12.7,3.6,12.6,13.1c-0.4,42.5-0.6,85,0.1,127.5
		c0.2,11.4-4.2,13.1-14.1,13C2889.4,3175.3,2820,3175.5,2750.5,3175.5z"/>
	<path class="st11" d="M2706,2821.4c-53.8,0-107.6-0.3-161.4,0.2c-10.6,0.1-13.8-2.9-13.6-13.6c0.6-42.5,0.5-84.9,0-127.4
		c-0.1-10,3.1-12.7,12.9-12.7c108.5,0.3,217.1,0.3,325.6,0c9.8,0,13,2.7,12.9,12.7c-0.5,42.5-0.5,84.9,0,127.4
		c0.1,10.6-3,13.7-13.6,13.6C2814.6,2821.1,2760.3,2821.4,2706,2821.4z"/>
</g>
</svg>
