<?xml version="1.0" encoding="utf-8"?>
<!-- Generator: Adobe Illustrator 22.0.0, SVG Export Plug-In . SVG Version: 6.00 Build 0)  -->
<svg version="1.1" id="Calque_2_1_" xmlns="http://www.w3.org/2000/svg" xmlns:xlink="http://www.w3.org/1999/xlink" x="0px"
	 y="0px" viewBox="0 0 5259.3 4603.5" style="enable-background:new 0 0 5259.3 4603.5;" xml:space="preserve">
<style type="text/css">
	.st0{fill:#B0B5BB;}
	.st1{fill:#FEFEFE;}
	.st2{fill:#8F051F;}
</style>
<g>
	<path class="st0" d="M0,895c0-2.6,0-5.4,0-8c3-4.9,2-10.4,2-15.7c-0.1-33.8,3.1-67.4,8.1-100.9c27.1-179,105.5-332.7,228.4-464.2
		c72-77.1,155.9-139,249.4-187.5C645.8,36.9,814.7,0.6,991.8,0.4C1293.9,0.1,1596,0,1898.2,0c373.8,0,747.5,0.3,1121.3,0.3
		c250.1,0.1,500.1,0.1,750.2-0.1c54.9,0,109.4,4.1,163,14.6c222.4,43.4,408.6,149.5,552.3,326.1c123,151.2,183.9,326.1,189.4,520.4
		c1.4,50.2-0.8,100.5-1.1,150.7c-1,248.3-0.7,496.5-0.8,744.9c-81.4,0.2-162.7,0.3-244.1,0.6c-21.4,0.1-19-3.5-19,19.1
		c-0.1,448.2,0,896.5,0,1344.7c0,27.1,0,27,27.2,27.1c78.7,0.2,157.4,0.4,236.1,0.6c0.7,59.1,1.7,118.2,1.9,177.5
		c0.3,90.8-0.3,181.5,0.2,272.3c0.4,71.2-3.1,142.1-12.8,212.7c-17.8,129-55.3,251.6-119.4,365.5c-57.7,102.5-132.8,190-227.8,259.9
		c-154.5,113.6-330,164.9-519.7,165.9c-270.5,1.3-540.9,1.4-811.4-0.8c-259.9-2.1-519.7-0.1-779.6-0.9
		c-204.2-0.7-408.4,0.5-612.6-1.8c-237.1-2.5-474.3,0.3-711.3-2.8c-89.6-1.1-175.8-17.9-259.2-49.5
		c-146-55.3-271.4-141.5-378.8-254.5c-73.5-77.4-133.9-163.8-177.3-261.5c-33.2-74.7-55.2-152.6-56.5-234.4
		c-2.4-150.8-2.1-301.6-2.8-452.4c-0.3-48.5-0.1-97-0.3-145.5c-1.1-323.9,0.6-647.8-2.1-971.6c-1.8-220.3-0.5-440.5-0.6-660.8
		c-0.2-218.5-0.4-436.9-0.7-655.4C2,905.4,3.1,899.9,0,895z M3249.7,2374.3c-0.2-4-0.4-7.8-0.4-11.8c-0.1-27.2-0.1-27.2-27.2-29
		c3.5-2,6.8-4.1,10.4-5.9c58.9-30.7,87.8-80.3,88.5-145.8c0.8-67.9-44.8-131.4-109.1-154.9c-23.4-8.5-47.6-14.6-70.9-23.1
		c-59.1-21.5-60.1-57.9-56.6-99.6c0.8-10.5,6.1-17.8,15.4-23.4c120.1-72.9,237.8-149.8,358.6-221.8c30.9-18.4,62.1-36.5,91.1-58
		c10.4-7.7,12-17.1,6.7-28.1c-2.3-4.8-4.9-9.4-7.7-14c-66.9-109.3-133.7-218.5-200.7-327.7c-20.9-34.1-41.2-68.6-64.1-101.5
		c-9.6-13.9-16.5-14-26.8-1c-9.2,11.6-15.8,24.7-21.1,38.5c-8.2,21.1-15.3,42.7-24,63.6c-40.4,97-142.6,149.6-243.8,125.9
		c-84.7-19.8-149.1-91.6-159.6-178.2c-8.2-67.6,12-126.4,59.4-174.2c44-44.3,99-64.3,162.1-62.2c29.9,1,58.7,9.8,88.6,9.9
		c14,0,29.3,2.5,38.4-12.4c8.6-14-1.6-24.5-8.1-35.3c-19.3-32-38.8-63.8-58.6-95.5c-65.6-105.9-128.8-213.2-196.5-317.7
		c-14.7-22.6-20-23.7-43.2-10.3c-118.2,68.4-234,140.7-350.8,211.6c-25.1,15.2-49.5,31.9-75.7,44.8c-42.2,20.7-90.9,9.6-103.4-48.1
		c-6.2-28.8-4.1-57.4,0.9-86.1c4.8-27.1,11.1-54.2,5.2-81.9c-6.5-30.4-22.5-56.1-42.5-79.1c-35.9-41.3-79.3-65.8-136.4-54
		c-28.4,5.8-53.1,20-77.2,35.3c-56,35.5-80.3,85.8-70.5,152c6.5,43.9,24.6,81.4,60.6,108.9c24.1,18.4,51.8,29.2,80.6,37.1
		c25.8,7.1,51,15.7,72.7,32.3c13,10,23.4,22.1,28.5,37.8c8.8,27.2-0.9,53.2-27.2,71.8c-60.6,43.1-125.8,78.9-188.8,118.3
		c-83.6,52.3-169.4,101.4-251.8,156c-21.8,14.4-22.3,16.6-8.8,39.4c85.1,144.5,173,287.2,260,430.5c5,8.2,10.6,9.5,18.8,7.2
		c18.5-5.2,30.9-16.4,37.9-34.4c10.4-27,16.3-55.4,28.7-81.7c70-149.4,265.3-169.1,368.5-40c33.8,42.4,42,92.4,37.8,144.9
		c-4.9,62.1-31,113.6-81,151.7c-55,41.9-117.5,49.5-183.7,38c-30-5.2-59.6-10.2-88.1,6.7c-9.9,5.9-11.5,10.6-5.3,20.8
		c57.3,93.2,114.1,186.7,171.2,280c32.5,53.1,65.1,106.2,98.2,158.8c10.6,16.7,14.4,16.8,31.2,6.5c102.5-62.5,205-125.2,307.4-187.8
		c51.6-31.6,103.2-63,156.9-91c12.9-6.8,25.6-8.8,37.5,0.7c28.7,22.4,46.7,50.7,47.4,88.4c0.4,17.2-2.8,33.6-7,50
		c-6.2,24.7-10.1,49.7-5.1,75.2c11.7,59.2,40.9,105.6,97.2,132c-27.6,0-55.3,0-83,0c-3.2-3.7-6.4-7.4-9.7-10.9
		c-34.5-37.6-54.5-81.7-53.3-132.9c0.9-36.7,7.3-73.3,10.8-109.9c1.7-17.6,4.2-35.4-2.6-52.7c-2.7-6.8-6-8.8-12.9-4.3
		c-11.2,7.2-23.3,13.1-34.6,20.1c-111.4,68.5-222.8,137-334,205.7c-31,19.1-61.5,39.3-92,59.2c-16.1,10.6-16.5,12.9-7.1,30
		c3.9,7,7.7,14,11.9,20.8c84.3,140.3,171.7,278.7,254.3,420c13.7,23.4,14.2,46.9-0.5,66.1c-12.8,16.7-29.1,28.6-49.9,33.7
		c-24.3,5.9-48.6,3.4-72.7-1.3c-35.8-6.9-71.6-13.4-108.1-2.5c-98.6,29.6-146.3,142.8-98.4,236.2c29.6,57.7,80.9,87.1,142.8,91.6
		c45,3.2,85.6-18,119.7-48.2c29.9-26.5,44.3-61.8,53.1-99.7c6.4-27.4,19-51.1,38.1-72.2c31.3-35,80.8-34.1,106.7,11.1
		c13,22.7,27.9,44.3,42,66.4c0.1,26.2,0.5,52.3,0.2,78.5c-0.1,7.5,2.1,10,9.7,9.8c14.6-0.5,29.3,0.1,43.9,0.2
		c54.1,90.8,109.1,181.2,166.3,270.1c18,27.9,13.1,28,43.7,11.5c67.2-36.5,131.1-78.5,196.3-118.4c80.1-48.8,161-96.2,239-148.2
		c5.8-3.9,12.7-6.9,14.1-15c31.5-0.1,63.1-0.8,94.6,0c11.8,0.3,14.7-2.9,14.6-14.7c-0.5-124.4-0.3-248.7-0.3-373.2
		c0-5.3,0.5-10.7,0.8-15.9c31,26.9,49.5,61,58.4,100.6c9.1,40.7,4.3,81.1-4,121.3c-4.4,21.8-8,43.8,6.5,64.1
		c7.1,9.8,14.1,13.2,25.6,6c25.6-16,51.7-31.1,77.6-46.6c0.2,47.1,0.8,94.2,0.3,141.2c-0.2,12.7,2.2,17.2,16.3,17.1
		c98.6-0.8,197.3-0.4,295.9-0.4c21.8,0,21.8,0,21.8-21.6c0.1-114.7,0.3-229.2,0.4-343.9c10.9-4.1,19.4-12.1,29.2-18.1
		c9.3-5.8,10.7-13.6,5.2-22.6c-11.3-18.5-22.7-37-34.1-55.4c-0.2-2.6-0.7-5.3-0.7-7.9c0-156.8,0-313.6,0-470.5
		c0-3.6,0.4-7.1,0.6-10.7c4.1-1.5,8.5-2.8,12.5-4.6c62.2-27.4,101.9-73.2,106.9-142.4c8.9-123.4-108.2-210.7-224.3-167.9
		c-49.5,18.3-83.6,52.4-98.5,104.2c-39,0.1-78.1,0.7-117.1,0.1c-11-0.2-14.2,2.8-14.1,14c0.5,35.5-0.2,71-0.4,106.5
		c-16.2-6.1-27-18.4-35.8-32.4c-17.8-28.6-35.2-57.6-52.8-86.3c-25.2-40.7-50.4-81.4-75.7-122c-0.2-31.4-0.8-62.8-0.3-94.1
		c0.2-11.6-2.1-16.5-15-15.6c-17.2,1.1-34.5,0.1-51.7-0.1c-22.2-39.6-46.2-78-71.9-115.3c-5.6-8-12.4-9.4-20.7-4.7
		c-4.2,2.4-8.8,4.3-12.9,6.9c-142.3,87-284.6,174.1-426.8,261.2c-19.8,12.2-20.5,17.7-5,36c2.3,2.6,5.1,4.9,7.8,7.2
		c17.6,14.7,39.1,21,60.5,26.7c43.2,11.5,78.7,34.6,107.4,68.5c45.2,53.2,69.3,113.1,54.2,183.6
		C3349.3,2293.8,3312.1,2344.1,3249.7,2374.3z M674.2,2419.5c-98.9-2.7-179.4,80.1-165.7,188c16.3,127.4,160.2,185.9,263.5,109.5
		c37.8-28,57.2-66.9,68.5-111.2c5.8-23,14.6-44.8,28.5-64.3c30.2-42.6,88.7-44.1,120.7-2.8c8.4,10.8,16.6,22.1,23.9,33.8
		c49.1,80,97.8,160.2,147,240.1c33.8,54.9,65.4,111.2,102.4,164.2c6.9,9.9,14.1,12.5,24.6,6.7c11.6-6.5,23.7-12.4,35.1-19.3
		c136.3-83.1,272.7-166.2,408.9-249.4c17.2-10.5,18.7-17.2,7.9-34.2c-4.1-6.6-9.7-11.4-16.6-15.1c-11.1-5.9-23.3-8.7-35.5-11
		c-48.2-9.3-91.9-28.8-127.9-62.3c-56.4-52.8-73.3-118.4-59.4-193.5c19.5-105.6,98.3-170.8,207.2-170.3
		c66.8,0.3,121.9,30.3,164.3,81.6c32.1,38.7,48.7,83.1,45.8,134.3c-1.5,27.2-8.1,53.6-12.9,80.1c-3.8,21-5.6,41.3,7.4,60.3
		c4.7,6.9,8.3,8.5,15.8,4c150.6-90.5,301.7-180.1,451.1-272.5c19.7-12.3,20-14.2,7.7-34.4c-48.3-79.4-96.6-158.9-144.9-238.2
		c-40.5-66.5-81.1-132.9-122.1-198.9c-10.4-16.8-14-33.8-6.2-51.9c11.8-27.4,31.9-45.2,61.9-51.5c25.3-5.3,49.6,0.1,73.9,4.8
		c27.6,5.4,55.3,8.6,83.4,5c87.8-11.1,173.2-119.8,122.9-229.4c-27.5-59.9-73.7-96-139-99.1c-65.4-3.2-119.7,22.7-154.2,81.7
		c-17.6,30.3-24,65-36.1,97.3c-6.5,17.4-15.7,32.8-29.8,45.1c-27.4,23.9-82.6,18.4-100.4-10.6c-69.7-113.2-139-226.8-208.7-340
		c-20.7-33.8-42.1-67-63.6-100.3c-10.2-15.7-13.7-16.5-30.5-8.4c-8,3.9-15.8,8-23.5,12.6c-113.4,69.4-227,138.7-340.2,208.3
		c-26.1,16-52,32.7-77.4,49.8c-16.8,11.2-17,20.1-2.2,34c10.8,10.3,23.9,17.1,37.6,22.3c15.4,5.8,31,10.9,46.5,16.5
		c96.1,34,158.6,123.9,145.8,225.1c-14,110.5-101.7,186.7-212,184.9c-70.6-1.1-127-33.3-167.7-91.6c-36.5-52.4-43.7-110.5-33.7-172
		c3.4-21,7.4-42.1,7-63.5c-0.3-14.1-7.4-25.3-18.8-32.1c-9.1-5.4-16.3,4.2-23.4,8.6c-105.2,64-210.4,128.3-315.4,192.6
		c-37.1,22.7-74.4,45.4-111,69.1c-18.7,12.1-18.6,16.5-7.4,35.9c67.3,116.7,139.1,230.8,208.8,346.1c17.3,28.6,36.1,56.3,51.1,85.9
		c20.6,40.9,6.6,93.3-48.5,106.4c-17,4.1-34.1,4.9-51.6,2.9C729.7,2426,702.5,2418.3,674.2,2419.5z M2056.4,3470.6
		c0.9,37.8-10.4,74.2-30.2,108.4c-39.3,67.9-123,108.5-200.4,99.4c-30.4-3.6-60.3-11.1-91.4-9.4c-35.4,2-41.1,11.7-23,41.2
		c86.3,141.2,172.5,282.4,258.8,423.5c15.1,24.7,15,24.7,40.2,10.1c103.7-60.6,205.9-123.6,308.2-186.5
		c37.1-22.8,74.1-45.9,111.7-68c50.6-29.7,106.2-4.4,115.9,52.7c3,17.9,2.8,36.4-0.8,54.4c-6.7,33.1-13.7,66.2-8.1,100.2
		c17.3,105,141.6,178.1,247.2,113.8c55-33.5,85.4-82.2,81.8-147.1c-4.4-79-52.2-135-128.8-156.6c-26.7-7.5-52.8-16.2-75.6-32.3
		c-33.5-23.7-45.8-58.6-31.8-90.1c8.3-18.6,23.1-31.3,40.1-41.7c110-67.3,220.1-134.6,330.2-201.8c27.7-16.9,55.8-33.3,82.2-52.1
		c16-11.5,17.3-16,8.6-33.3c-5.8-11.5-12-22.8-18.8-33.8c-58.1-95.3-116.2-190.7-174.6-285.8c-24.2-39.4-47.2-79.6-73.5-117.7
		c-5.4-7.8-10.4-15.7-22-14c-11.8,1.7-12.2,11.8-14.9,19.8c-7.3,21-13.9,42.2-21.1,63.3c-11.7,33.4-26.6,65.1-50.8,91.6
		c-37.4,41-83.4,63.4-139.2,67.1c-63.4,4.2-120-10.7-166.8-55.2c-49.9-47.2-68.7-105.3-63.4-173.7c7.2-90.5,69-167,157-189.3
		c39.8-10.1,79.3-5.8,119,1.6c21.9,4.1,43.9,6.9,65.8-1.1c15.9-5.8,19.6-13.4,12.8-28.5c-2.9-6.5-6.2-12.8-9.9-18.9
		c-50.6-83.7-101.1-167.6-152.3-251c-34.1-55.7-66.4-112.7-103.8-166.4c-11-15.9-13.2-16.4-30.5-7.4c-43.8,22.8-85,50.1-127.3,75.7
		c-104.1,63.4-207.8,127.4-312,190.7c-41.7,25.4-90,4.4-100.3-43.1c-5.9-27.2-5.7-54.9-2.5-82.3c3.1-26.6,7.3-53.3,2.9-79.7
		c-15.2-93.3-97-151.4-190.3-136.2c-93.8,15.3-154.8,115.4-125.2,205.6c18.2,55.3,59.4,88.2,110.2,111c27.2,12.2,54.8,23.5,81.7,36
		c24.1,11.2,40.3,29.3,41.5,57.3c1.3,29-12,49.8-36.6,64.8c-130.7,79.5-261.3,159.3-391.8,239.1c-13.7,8.4-27.4,16.7-40.2,26.3
		c-13,9.7-13.9,17.4-5.6,30.9c86.7,141.9,173.5,283.8,260.6,425.6c6.2,10.2,11.3,26,24.9,25c13.2-1,18.9-16.2,25.1-27.3
		c11.4-20.3,16.9-43,25.1-64.6c30.8-81.6,85.4-134.9,174.4-147.9C1946,3243.9,2056.7,3340.1,2056.4,3470.6z"/>
	<path class="st1" d="M4925.4,2279.2c0,285.2,0.1,570.4-0.3,855.6c0,10.7,2,14,13.5,14c102.3-0.6,204.7-0.5,307,0
		c11.1,0.1,13.8-2.7,13.8-13.9c-0.3-570.4-0.3-1140.7,0-1711.1c0-10.8-2.4-14.1-13.7-14c-101.9,0.5-203.8,0.5-305.7-0.1
		c-12.5-0.1-14.9,3.6-14.9,15.4C4925.5,1709.6,4925.4,1994.4,4925.4,2279.2z"/>
	<path class="st1" d="M674.2,2419.5c28.3-1.2,55.5,6.4,83.3,9.5c17.5,2,34.6,1.1,51.6-2.9c55.1-13.1,69.1-65.4,48.5-106.4
		c-15-29.7-33.8-57.4-51.1-85.9c-69.7-115.3-141.4-229.4-208.8-346.1c-11.2-19.4-11.2-23.9,7.4-35.9c36.6-23.8,73.8-46.4,111-69.1
		c105-64.3,210.2-128.6,315.4-192.6c7.2-4.3,14.3-14,23.4-8.6c11.3,6.7,18.5,17.9,18.8,32.1c0.5,21.5-3.6,42.4-7,63.5
		c-10,61.6-2.8,119.7,33.7,172c40.6,58.5,97.1,90.5,167.7,91.6c110.2,1.8,197.9-74.5,212-184.9c12.8-101.2-49.7-191-145.8-225.1
		c-15.5-5.5-31.1-10.7-46.5-16.5c-13.8-5.2-26.8-12.1-37.6-22.3c-14.8-14-14.6-22.7,2.2-34c25.5-17.1,51.3-33.8,77.4-49.8
		c113.3-69.6,226.8-139,340.2-208.3c7.5-4.6,15.5-8.8,23.5-12.6c16.9-8.1,20.4-7.4,30.5,8.4c21.4,33.3,42.8,66.6,63.6,100.3
		c69.7,113.2,139,226.8,208.7,340c17.8,28.9,72.9,34.4,100.4,10.6c14.1-12.3,23.2-27.6,29.8-45.1c12.2-32.4,18.5-67,36.1-97.3
		c34.4-59,88.7-85,154.2-81.7c65.2,3.2,111.4,39.2,139,99.1c50.4,109.6-35.1,218.3-122.9,229.4c-28.2,3.6-55.8,0.4-83.4-5
		c-24.3-4.7-48.7-10.1-73.9-4.8c-30,6.2-50.1,24-61.9,51.5c-7.8,18.2-4.1,35.2,6.2,51.9c41,66.1,81.6,132.6,122.1,198.9
		c48.4,79.3,96.6,158.8,144.9,238.2c12.3,20.2,12,22.2-7.7,34.4c-149.4,92.4-300.6,182-451.1,272.5c-7.5,4.5-11.1,3-15.8-4
		c-12.9-19-11.1-39.2-7.4-60.3c4.8-26.6,11.4-52.9,12.9-80.1c2.8-51.2-13.8-95.6-45.8-134.3c-42.5-51.3-97.6-81.3-164.3-81.6
		c-108.8-0.4-187.6,64.7-207.2,170.3c-13.9,75,3,140.7,59.4,193.5c35.9,33.6,79.6,53.1,127.9,62.3c12.3,2.4,24.3,5.1,35.5,11
		c6.8,3.7,12.4,8.5,16.6,15.1c10.7,17.1,9.2,23.8-7.9,34.2c-136.3,83.2-272.6,166.3-408.9,249.4c-11.4,6.9-23.4,12.7-35.1,19.3
		c-10.5,5.9-17.7,3.3-24.6-6.7c-37-53-68.5-109.2-102.4-164.2c-49.2-79.9-97.9-160.1-147-240.1c-7.2-11.7-15.4-22.9-23.9-33.8
		c-32-41.3-90.5-39.8-120.7,2.8c-13.9,19.5-22.5,41.3-28.5,64.3c-11.3,44.1-30.7,83.2-68.5,111.2
		c-103.3,76.5-247.2,17.9-263.5-109.5C494.7,2499.6,575.2,2416.8,674.2,2419.5z"/>
	<path class="st1" d="M3094.5,2333.6c-56.3-26.4-85.5-72.8-97.2-132c-5-25.5-1.1-50.4,5.1-75.2c4.1-16.4,7.4-32.8,7-50
		c-0.8-37.7-18.8-66-47.4-88.4c-12-9.4-24.6-7.4-37.5-0.7c-53.7,28-105.3,59.4-156.9,91c-102.4,62.7-204.9,125.3-307.4,187.8
		c-16.8,10.3-20.7,10.2-31.2-6.5c-33.3-52.6-65.8-105.7-98.2-158.8c-57.1-93.3-113.8-186.9-171.2-280c-6.3-10.3-4.7-14.9,5.3-20.8
		c28.5-17,58.1-12,88.1-6.7c66.2,11.5,128.7,3.8,183.7-38c50-38,76.2-89.5,81-151.7c4.1-52.4-4-102.5-37.8-144.9
		c-103.2-129.1-298.6-109.5-368.5,40c-12.4,26.3-18.3,54.8-28.7,81.7c-6.9,18-19.4,29.2-37.9,34.4c-8.3,2.3-13.9,0.9-18.8-7.2
		c-87-143.3-174.9-286.1-260-430.5c-13.5-22.8-13-25,8.8-39.4c82.3-54.5,168.1-103.5,251.8-156c63-39.4,128.1-75.2,188.8-118.3
		c26.3-18.7,36-44.7,27.2-71.8c-5.1-15.7-15.6-27.8-28.5-37.8c-21.6-16.6-46.9-25.2-72.7-32.3c-28.9-7.9-56.5-18.8-80.6-37.1
		c-36.1-27.4-54.1-65-60.6-108.9c-9.8-66.1,14.4-116.4,70.5-152c24.1-15.3,48.8-29.4,77.2-35.3c57.2-11.8,100.5,12.7,136.4,54
		c20,23,36,48.7,42.5,79.1c5.9,27.7-0.4,54.9-5.2,81.9c-5.1,28.7-7.2,57.3-0.9,86.1c12.5,57.7,61.2,68.8,103.4,48.1
		c26.2-12.9,50.6-29.6,75.7-44.8c116.7-70.8,232.5-143.2,350.8-211.6c23.2-13.4,28.5-12.4,43.2,10.3
		c67.7,104.6,131,211.9,196.5,317.7c19.7,31.8,39.2,63.6,58.6,95.5c6.5,10.7,16.7,21.2,8.1,35.3c-9.1,14.8-24.4,12.4-38.4,12.4
		c-29.9-0.1-58.7-8.9-88.6-9.9c-63.1-2.1-118,17.9-162.1,62.2c-47.4,47.7-67.6,106.5-59.4,174.2c10.6,86.6,75,158.4,159.6,178.2
		c101.3,23.7,203.4-28.9,243.8-125.9c8.7-20.9,15.8-42.5,24-63.6c5.3-13.8,12-26.8,21.1-38.5c10.3-13,17.2-12.8,26.8,1
		c22.9,32.8,43.2,67.4,64.1,101.5c67,109.2,133.9,218.4,200.7,327.7c2.8,4.5,5.5,9.2,7.7,14c5.3,11,3.7,20.4-6.7,28.1
		c-28.9,21.5-60.3,39.6-91.1,58c-120.8,71.9-238.5,148.9-358.6,221.8c-9.2,5.6-14.5,12.9-15.4,23.4c-3.5,41.7-2.5,78.1,56.6,99.6
		c23.4,8.5,47.6,14.6,70.9,23.1c64.3,23.5,109.8,87,109.1,154.9c-0.8,65.4-29.6,115-88.5,145.8c-3.5,1.8-6.9,4-10.4,5.9
		C3179.5,2333.6,3137,2333.6,3094.5,2333.6z"/>
	<path class="st1" d="M2056.4,3470.6c0.3-130.6-110.4-226.7-237.1-208.1c-89,13.1-143.6,66.4-174.4,147.9
		c-8.2,21.6-13.7,44.3-25.1,64.6c-6.2,11.1-11.9,26.3-25.1,27.3c-13.6,1-18.7-14.7-24.9-25c-87-141.7-173.8-283.7-260.6-425.6
		c-8.2-13.5-7.4-21.2,5.6-30.9c12.7-9.6,26.5-17.9,40.2-26.3c130.5-79.8,261.1-159.6,391.8-239.1c24.7-15,38-35.7,36.6-64.8
		c-1.3-27.9-17.3-46-41.5-57.3c-27-12.5-54.6-23.9-81.7-36c-50.9-22.9-92.1-55.6-110.2-111c-29.6-90.2,31.4-190.4,125.2-205.6
		c93.3-15.2,175,43,190.3,136.2c4.3,26.5,0.2,53.2-2.9,79.7c-3.2,27.4-3.5,55.1,2.5,82.3c10.4,47.5,58.6,68.5,100.3,43.1
		c104.1-63.3,207.9-127.3,312-190.7c42.1-25.6,83.4-52.9,127.3-75.7c17.3-9,19.3-8.5,30.5,7.4c37.4,53.7,69.6,110.7,103.8,166.4
		c51.1,83.4,101.5,167.3,152.3,251c3.7,6,7,12.4,9.9,18.9c6.8,15.2,3.1,22.6-12.8,28.5c-21.9,8-43.9,5.2-65.8,1.1
		c-39.6-7.3-79.2-11.7-119-1.6c-88,22.3-149.8,98.7-157,189.3c-5.4,68.4,13.5,126.4,63.4,173.7c46.9,44.4,103.4,59.4,166.8,55.2
		c55.7-3.8,101.8-26.1,139.2-67.1c24.1-26.5,39.1-58.2,50.8-91.6c7.4-21,13.9-42.2,21.1-63.3c2.7-8,3.1-18.1,14.9-19.8
		c11.6-1.7,16.6,6.3,22,14c26.3,38.1,49.3,78.3,73.5,117.7c58.5,95,116.5,190.5,174.6,285.8c6.7,11,12.9,22.3,18.8,33.8
		c8.8,17.3,7.5,21.8-8.6,33.3c-26.4,19-54.5,35.3-82.2,52.1c-110.1,67.2-220.2,134.5-330.2,201.8c-17,10.4-31.8,23.1-40.1,41.7
		c-14,31.5-1.6,66.5,31.8,90.1c22.9,16.2,49,24.9,75.6,32.3c76.6,21.6,124.4,77.6,128.8,156.6c3.6,64.9-26.9,113.6-81.8,147.1
		c-105.6,64.3-229.9-8.8-247.2-113.8c-5.7-34,1.4-67.1,8.1-100.2c3.7-18.1,3.9-36.5,0.8-54.4c-9.7-57.1-65.2-82.4-115.9-52.7
		c-37.6,22.1-74.6,45.2-111.7,68c-102.3,62.9-204.6,125.9-308.2,186.5c-25.1,14.7-25,14.6-40.2-10.1
		c-86.3-141.2-172.5-282.4-258.8-423.5c-18.1-29.5-12.4-39.2,23-41.2c31-1.7,61,5.8,91.4,9.4c77.3,9.1,161-31.5,200.4-99.4
		C2046,3544.9,2057.4,3508.4,2056.4,3470.6z"/>
	<path class="st2" d="M3670.9,1757c17.3,0.1,34.5,1.2,51.7,0.1c12.8-0.8,15.2,4.1,15,15.6c-0.6,31.4,0.1,62.8,0.3,94.1
		c-0.2,4-0.5,8-0.5,12c0,284.3,0,568.6,0,852.8c0,4.4,0.5,8.9,0.8,13.3c-0.3,5.3-0.8,10.7-0.8,15.9c0,124.4-0.2,248.7,0.3,373.2
		c0,11.8-2.8,15-14.6,14.7c-31.5-0.8-63.1-0.1-94.6,0c-70.5-0.1-141.1-0.5-211.5,0c-11.4,0.1-13.6-3.1-13.5-14
		c0.4-51.4-0.2-102.9-0.4-154.3c1-60.7,1.2-121.5-0.1-182.3c0.3-6.2,0.8-12.4,0.8-18.6c0-335,0-670,0-1005c0-17.2,0-17.2,17.8-17.2
		C3504.5,1757.3,3587.7,1757.2,3670.9,1757z"/>
	<path class="st2" d="M4672.5,1756.9c20,0.2,40,0.7,60,0.3c7.7-0.2,12,1.4,10.6,10.1c-0.4,2.2-0.1,4.4-0.1,6.7
		c0,452.6-0.1,905.2,0.4,1357.8c0,14.1-3.8,17.8-17.3,17c-17.7-1.1-35.5,0.1-53.3,0.3c-78.7-0.2-157.4-0.4-236.1-0.6
		c-27.2-0.1-27.2,0-27.2-27.1c0-448.2,0-896.5,0-1344.7c0-22.6-2.4-19,19-19.1C4509.7,1757.2,4591.1,1757.1,4672.5,1756.9z"/>
	<path class="st2" d="M3902.1,2107.6c0.2-35.5,0.9-71,0.4-106.5c-0.2-11.1,3-14.1,14.1-14c39,0.6,78.1,0,117.1-0.1
		c62.3,0.1,124.6,0.7,186.9,0.1c12.5-0.1,16.4,2.5,16.2,15.7c-0.6,65,0.1,129.8,0.3,194.8c-0.2,3.6-0.6,7.1-0.6,10.7
		c0,156.8,0,313.6,0,470.5c0,2.6,0.4,5.3,0.7,7.9c-0.1,32.1-0.2,64.1-0.3,96.2c-0.1,114.7-0.3,229.2-0.4,343.9
		c0,21.6,0,21.6-21.8,21.6c-98.6,0-197.3-0.4-295.9,0.4c-14.2,0.1-16.5-4.2-16.3-17.1c0.6-47.1-0.1-94.2-0.3-141.2
		c0.2-4,0.6-8,0.6-12c0-286.4,0-572.6,0-859C3902.8,2115.6,3902.4,2111.6,3902.1,2107.6z"/>
	<path class="st1" d="M2915,3060.1c-14-22.1-28.9-43.7-42-66.4c-25.9-45.3-75.4-46.1-106.7-11.1c-19,21.1-31.7,44.8-38.1,72.2
		c-8.9,37.9-23.3,73.1-53.1,99.7c-34,30.3-74.7,51.4-119.7,48.2c-61.9-4.4-113.2-33.8-142.8-91.6c-47.9-93.4-0.2-206.6,98.4-236.2
		c36.4-10.9,72.1-4.4,108.1,2.5c24.1,4.6,48.4,7.3,72.7,1.3c20.7-5.1,37.1-17,49.9-33.7c14.8-19.3,14.2-42.7,0.5-66.1
		c-82.7-141.2-170-279.8-254.3-420c-4.1-6.9-8-13.9-11.9-20.8c-9.3-17.1-9-19.5,7.1-30c30.5-20,61-40.1,92-59.2
		c111.2-68.8,222.6-137.3,334-205.7c11.3-7,23.4-12.9,34.6-20.1c6.9-4.4,10.2-2.5,12.9,4.3c7,17.3,4.3,35.1,2.6,52.7
		c-3.5,36.7-9.9,73.3-10.8,109.9c-1.3,51.1,18.8,95.2,53.3,132.9c3.3,3.6,6.5,7.3,9.7,10.9c-27.2,0.1-54.3,1-81.4,0.1
		c-12.4-0.5-15,3.4-14.9,15.2c0.4,231.3,0.3,462.6,0.3,693.9C2915.4,3048.6,2915.2,3054.4,2915,3060.1z"/>
	<path class="st1" d="M3670.9,1757c-83.2,0.1-166.4,0.3-249.6,0.4c-17.8,0-17.8,0-17.8,17.2c0,335,0,670,0,1005
		c0,6.2-0.5,12.4-0.8,18.6c-27.5,60.8-26.6,121.5,0.1,182.3c0.2,51.4,0.8,102.9,0.4,154.3c-0.1,10.7,2.2,14,13.5,14
		c70.5-0.5,141.1-0.1,211.5,0c-1.4,8.1-8.4,11.1-14.1,15c-78,52-159,99.4-239,148.2c-65.2,39.8-129.1,81.9-196.3,118.4
		c-30.5,16.6-25.7,16.5-43.7-11.5c-57.2-88.9-112.2-179.2-166.3-270.1c88.5-0.1,177-0.6,265.5-0.1c12.2,0.1,15-3.1,15-15.1
		c-0.4-247.8-0.3-495.5-0.3-743.3c0-5.4,0.3-10.7,0.4-16c62.4-30.2,99.8-80.5,114-147.4c15.1-70.4-9.1-130.4-54.2-183.6
		c-28.7-33.8-64.2-56.9-107.4-68.5c-21.4-5.8-42.9-12.1-60.5-26.7c-2.7-2.3-5.6-4.4-7.8-7.2c-15.5-18.2-14.8-23.9,5-36
		c142.2-87.1,284.5-174.2,426.8-261.2c4.1-2.5,8.7-4.5,12.9-6.9c8.4-4.6,15.2-3.3,20.7,4.7C3624.7,1679,3648.7,1717.5,3670.9,1757z"
		/>
	<path class="st2" d="M3249.7,2374.3c-0.2,5.4-0.4,10.7-0.4,16c0,247.8-0.1,495.5,0.3,743.3c0,12-2.8,15.2-15,15.1
		c-88.5-0.5-177-0.1-265.5,0.1c-14.6-0.1-29.3-0.7-43.9-0.2c-7.6,0.2-9.8-2.3-9.7-9.8c0.3-26.2-0.1-52.3-0.2-78.5
		c0.1-5.8,0.4-11.5,0.4-17.3c0-231.3,0.1-462.6-0.3-693.9c0-11.9,2.5-15.7,14.9-15.2c27.1,0.9,54.2,0.1,81.4-0.1c27.6,0,55.3,0,83,0
		c42.5-0.1,85-0.1,127.6-0.2c27.1,1.9,27.1,1.9,27.2,29C3249.2,2366.5,3249.5,2370.4,3249.7,2374.3z"/>
	<path class="st1" d="M3902.1,2107.6c0.2,4,0.7,7.9,0.7,12c0,286.4,0,572.6,0,859c0,4-0.4,8-0.6,12c-25.9,15.5-52,30.5-77.6,46.6
		c-11.4,7.2-18.5,3.9-25.6-6c-14.5-20.3-10.9-42.3-6.5-64.1c8.2-40.4,13-80.6,4-121.3c-8.9-39.6-27.4-73.8-58.4-100.7
		c-0.3-4.4-0.8-8.9-0.8-13.3c0-284.3,0-568.6,0-852.8c0-4,0.3-8,0.5-12c25.3,40.6,50.5,81.3,75.7,122c17.7,28.7,35,57.7,52.8,86.3
		C3875.2,2089.3,3886,2101.5,3902.1,2107.6z"/>
	<path class="st1" d="M4237.2,2197.7c-0.2-65-0.8-129.9-0.3-194.8c0.1-13.3-3.8-15.8-16.2-15.7c-62.2,0.6-124.6,0-186.9-0.1
		c14.9-51.7,49-85.9,98.5-104.2c116-42.8,233.2,44.5,224.3,167.9c-5,69.2-44.7,114.8-106.9,142.4
		C4245.6,2195,4241.4,2196.2,4237.2,2197.7z"/>
	<path class="st1" d="M4237,2782.9c0.1-32.1,0.2-64.1,0.3-96.2c11.4,18.5,22.8,36.9,34.1,55.4c5.6,9.1,4.1,16.9-5.2,22.6
		C4256.4,2770.9,4248,2778.9,4237,2782.9z"/>
	<path class="st2" d="M4925.4,2279.2c0-284.8,0.1-569.5-0.3-854.3c0-11.8,2.4-15.5,14.9-15.4c101.9,0.6,203.8,0.5,305.7,0.1
		c11.3-0.1,13.7,3.2,13.7,14c-0.3,570.4-0.3,1140.7,0,1711.1c0,11-2.7,13.9-13.8,13.9c-102.3-0.5-204.7-0.5-307,0
		c-11.5,0.1-13.5-3.3-13.5-14C4925.5,2849.5,4925.4,2564.3,4925.4,2279.2z"/>
	<path class="st0" d="M3402.9,2980.5c-26.7-60.7-27.6-121.5-0.1-182.3C3404.2,2858.9,3403.9,2919.7,3402.9,2980.5z"/>
</g>
</svg>
