<?xml version="1.0" encoding="utf-8"?>
<!-- Generator: Adobe Illustrator 22.0.0, SVG Export Plug-In . SVG Version: 6.00 Build 0)  -->
<svg version="1.1" id="Calque_2_1_" xmlns="http://www.w3.org/2000/svg" xmlns:xlink="http://www.w3.org/1999/xlink" x="0px"
	 y="0px" viewBox="0 0 5521.9 4603.5" style="enable-background:new 0 0 5521.9 4603.5;" xml:space="preserve">
<style type="text/css">
	.st0{fill:#B0B5BB;}
	.st1{fill:#FEFEFE;}
	.st2{fill:#8F051F;}
</style>
<g>
	<path class="st0" d="M3834.7,4606.9c-431.8,0-863.6,0-1295.4,0c-5.6-3.6-12-2.1-18-2.1c-125.2-0.2-250.4-0.2-375.5-0.5
		c-278.2-0.7-556.4,1.3-834.5-2.2c-100.1-1.3-200.3-0.1-300.4-0.7c-62.8-0.4-125.7,2.4-188.3-3.5c-98.8-9.3-192.3-38.1-281.2-81.8
		c-133.3-65.5-247.3-155.8-342.3-269.8C133.9,4168,82.7,4081.7,46.8,3986c-32.2-85.7-38.1-174.6-38.5-264.5
		c-1.2-341,0.2-682-2.5-1023c-1.9-233.8-0.5-467.6-0.6-701.5c-0.1-133.7-0.2-267.4-0.4-401c0-5.5,1.7-11.4-2.5-16.4
		c0-240,0-480,0-720c5-16.5,3.1-33.6,4.9-50.4c10.3-98.3,37.3-191.6,81.1-280c90.6-182.8,229.4-317.9,410.1-410.7
		C654.3,38.3,821.6,4.6,995.8,4c307.5-1.1,615-0.6,922.5-0.6c359.9,0,719.8,0.2,1079.8,0.3c255.5,0,511.1-0.2,766.6,0.3
		c34.8,0.1,69.9,1.9,104.5,5.7c114.2,12.5,222.6,45.2,324.7,98c139.6,72.1,254.4,172.3,341.2,303.4
		c94.9,143.3,139.9,302,141.1,473.4c0.3,41-1.3,82.1-1.7,123.1c-0.5,49.1-0.6,98.2-0.9,147.3c-60.5-19.5-122.1-34.9-184.6-46.5
		c-0.1-95.4-0.1-190.9-0.2-286.3c0-25.3,1.9-22.1-21.9-22.1c-1401.7,0-2803.3,0-4205,0c-3.3,0-6.7,0.3-9.9-0.1
		c-9.7-1.2-12.7,3.5-11.7,12.4c0.4,3.7,0.1,7.6,0.1,11.3c0,967,0,1934.1,0,2901.1c0,26.5-3.3,23.5,23.2,23.5
		c1400.7,0,2801.4,0,4202.1,0c1.9,0,3.8-0.2,5.7,0c13.3,2,18-2.8,17.7-16.9c-0.8-42.5-0.2-85-0.1-127.5
		c63.4-14.7,126-32.4,187.4-54.2c-1.3,44.3-0.1,88.6-1.6,133c-3.7,103.3-18.6,204.5-48.5,303.5c-52.2,172.4-142.6,320-283.6,434
		c-125.5,101.4-270.1,158-429.5,178.3C3887.1,4601.8,3860.9,4604.1,3834.7,4606.9z"/>
	<path class="st1" d="M4489.1,3603.9c-0.1,42.5-0.7,85,0.1,127.5c0.3,14-4.5,18.9-17.7,16.9c-1.8-0.3-3.8,0-5.7,0
		c-1400.7,0-2801.4,0-4202.1,0c-26.5,0-23.2,3-23.2-23.5c-0.1-967,0-1934.1,0-2901.1c0-3.8,0.3-7.6-0.1-11.3
		c-0.9-8.9,2.1-13.6,11.7-12.4c3.3,0.4,6.6,0.1,9.9,0.1c1401.7,0,2803.3,0,4205,0c23.8,0,21.9-3.2,21.9,22.1
		c0.1,95.4,0.1,190.9,0.2,286.3c-84.5-12.9-169.5-19.7-255.1-18c-99.4,2-197.6,13.4-294.2,37c-220.8,54.1-409.8,165-571.9,322.8
		c-210.1,204.5-339.4,449.8-373,743c-15.5,135.5-12.4,270.5,13.1,404.5c46.9,247,164.1,457,338.7,636
		c159.8,163.8,351.5,275.5,569.2,343.4c148.3,46.3,299.9,60.6,454.5,44.3C4410.1,3617.1,4449.5,3609.7,4489.1,3603.9z M1376,3316.8
		c198.4,0,396.8-0.1,595.2,0.3c12.4,0,15.9-3.2,16-15.8c0.1-34.1-2.5-68-7-101.6c-19.9-148.4-64.3-289-136.5-420.4
		c-55.1-100.4-123.8-189.8-217.4-257.7c-113.4-82.2-239.4-112.7-377.7-89.4c-130.1,21.9-230.5,92.2-311,193.7
		c-78.1,98.5-127.2,211.5-161.4,331.4c-22.5,78.7-37.5,158.8-44.8,240.3c-3.1,34.7-3.9,69.7-6,104.5c-0.5,8.6,1.9,13,11.7,12.9
		c17.4-0.1,34.9,1.6,52.3,1.6C984.9,3316.8,1180.5,3316.8,1376,3316.8z M1734.5,1819c1.7-207-166.3-374.2-369.1-378.6
		c-210.7-4.6-387.3,162.3-387.2,377.9c0.1,213.8,169.5,376.7,373.8,378.4C1565.6,2198.5,1734.5,2030.2,1734.5,1819z M2827,3266.8
		c-107.7,0-215.3,0.2-323-0.3c-12.4-0.1-16.2,3.2-16,15.8c0.8,41.5,0.7,83.1,0,124.7c-0.2,12.2,4,14.9,15.4,14.8
		c215.8-0.3,431.6-0.3,647.4,0.1c14.2,0,17.5-4.8,17.2-18c-0.7-39.7-0.8-79.3,0-119c0.3-14.2-3.6-18.6-18.2-18.5
		C3042.3,3267,2934.7,3266.8,2827,3266.8z M2771.6,1489.4c-89.2,0-178.5,0.2-267.7-0.3c-12.5-0.1-16.1,3.5-15.9,16
		c0.8,41.5,0.6,83.1,0.1,124.7c-0.1,10.6,2.3,14.8,14,14.8c179.9-0.4,359.8-0.3,539.7-0.1c10.5,0,13.9-3.1,13.8-13.7
		c-0.5-41.5-0.8-83.1,0.1-124.6c0.3-14.3-4.7-17.1-17.8-17C2949.2,1489.7,2860.4,1489.4,2771.6,1489.4z M2717.9,2911.5
		c-71.8,0-143.6,0.2-215.4-0.2c-11.1-0.1-14.6,3.1-14.5,14.4c0.6,41.6,0.7,83.1,0,124.7c-0.2,12.4,4.4,14.7,15.6,14.6
		c142.2-0.3,284.3-0.3,426.5,0c11.5,0,15.6-2.9,15.4-15c-0.7-40.6-0.7-81.2,0-121.8c0.2-12.7-3.1-17.1-16.5-17
		C2858.6,2911.9,2788.3,2911.5,2717.9,2911.5z M2659.8,1993.5c52.9,0,105.7-0.2,158.6,0.2c9.5,0.1,13.4-2.5,13.3-12.7
		c-0.5-42.5-0.5-85,0-127.4c0.1-10.9-3.7-13.5-13.9-13.4c-105.3,0.3-210.5,0.3-315.8,0c-10.2,0-14.1,2.4-13.9,13.4
		c0.6,42,0.6,84,0,126c-0.2,11.5,3.7,14.4,14.6,14.3C2555,1993.3,2607.4,1993.5,2659.8,1993.5z M2659.7,2197.5
		c-52.9,0-105.7,0.2-158.6-0.2c-9.7-0.1-13.1,2.8-13,12.8c0.5,42.5,0.5,85,0,127.4c-0.1,10.9,3.8,13.4,14,13.4
		c105.3-0.3,210.5-0.3,315.8,0c10.4,0,14-2.9,13.8-13.6c-0.5-41.5-0.7-83.1,0.1-124.6c0.3-13.1-4.4-15.6-16.3-15.5
		C2763.6,2197.8,2711.7,2197.5,2659.7,2197.5z M2661.3,2554.3c-53.3,0-106.7,0.2-160-0.2c-9.7-0.1-13.2,2.7-13.1,12.8
		c0.5,42.5,0.5,85,0,127.4c-0.1,10.9,3.6,13.4,13.9,13.4c105.3-0.3,210.5-0.3,315.8,0c10.2,0,14.1-2.5,14-13.4c-0.6-42-0.6-84,0-126
		c0.2-11.6-3.9-14.3-14.7-14.2C2765.1,2554.6,2713.2,2554.3,2661.3,2554.3z"/>
	<path class="st2" d="M4489.1,3603.9c-39.6,5.8-79,13.2-118.8,17.4c-154.6,16.4-306.3,2-454.5-44.3
		c-217.7-67.9-409.4-179.6-569.2-343.4c-174.5-179-291.8-389-338.7-636c-25.5-134-28.6-269-13.1-404.5
		c33.6-293.2,162.9-538.5,373-743c162.2-157.8,351.1-268.7,571.9-322.8c96.6-23.7,194.8-35.1,294.2-37c85.6-1.7,170.6,5.1,255.1,18
		c62.5,11.6,124,27,184.6,46.5c94.9,33.7,185.8,75.8,269,132.7c270.7,185.2,460.9,429,542.8,750.8c24.4,96,35.5,193.7,37.4,292.7
		c2.8,143.1-15.5,283.2-59.7,419.6c-50.3,155.1-131,292.9-235.9,417.2c-147.4,174.5-330.6,297.5-543.1,378.5c-2.6,1-5.2,2.2-7.7,3.4
		C4615.1,3571.5,4552.5,3589.2,4489.1,3603.9z M3464.6,2575.8c0,0.5,0,0.9,0,1.4c-29.8,0-59.5,0.6-89.2-0.3
		c-11.1-0.3-13.3,3.8-13.8,13.6c-1.1,20.9-0.3,41.5,4.4,61.9c17.9,79.1,52,151.7,96,219c101.8,155.9,241.7,266.6,412.9,338.1
		c105,43.9,215.2,65.6,328.6,72.2c93.7,5.5,186.8,1.3,278.6-20c193.9-44.8,354.4-145.7,487-292.2
		c98.7-108.9,158.7-236.3,177.7-382.6c1.5-11.9-0.1-15.9-13.7-15.7c-59.5,0.9-119,0.7-178.6,0.1c-10-0.1-13.5,3-16.1,12.3
		c-56.2,199.5-184.3,334.6-375.2,409.4c-161.4,63.3-329.1,71.3-498.4,39.3c-129.4-24.5-243.3-82.2-339.2-173.1
		c-78.6-74.5-130.3-165.4-157-270.3c-2.7-10.6-6.6-13.8-17.5-13.4C3522.2,2576.5,3493.4,2575.8,3464.6,2575.8z M3901.3,1987.6
		c-0.4-133.6-110.6-243.8-243.4-243.3c-134.5,0.5-243.8,110.5-243.2,244.7c0.6,134,110.1,242.7,243.9,242.4
		C3792.2,2231.1,3901.7,2121,3901.3,1987.6z M4488.2,1987.9c-0.1,133.5,109.3,243.2,242.9,243.5c133.7,0.4,243.4-108.9,243.5-242.6
		c0.1-134.9-109.5-245.1-243.2-244.5C4597.8,1744.9,4488.3,1854.6,4488.2,1987.9z"/>
	<path class="st0" d="M1376,3316.8c-195.6,0-391.1,0-586.7-0.1c-17.4,0-34.9-1.7-52.3-1.6c-9.8,0-12.2-4.3-11.7-12.9
		c2-34.8,2.9-69.8,6-104.5c7.3-81.5,22.3-161.6,44.8-240.3c34.2-120,83.3-232.9,161.4-331.4c80.5-101.5,180.9-171.8,311-193.7
		c138.3-23.3,264.3,7.2,377.7,89.4c93.7,67.9,162.3,157.3,217.4,257.7c72.2,131.4,116.6,272,136.5,420.4c4.5,33.6,7.1,67.5,7,101.6
		c-0.1,12.6-3.6,15.8-16,15.8C1772.8,3316.7,1574.4,3316.8,1376,3316.8z"/>
	<path class="st0" d="M1734.5,1819c0,211.2-168.9,379.5-382.5,377.8c-204.3-1.7-373.7-164.6-373.8-378.4
		c-0.1-215.6,176.5-382.5,387.2-377.9C1568.3,1444.8,1736.3,1612,1734.5,1819z"/>
	<path class="st0" d="M2827,3266.8c107.7,0,215.3,0.3,323-0.3c14.6-0.1,18.5,4.4,18.2,18.5c-0.9,39.6-0.8,79.3,0,119
		c0.2,13.2-3.1,18-17.2,18c-215.8-0.4-431.6-0.4-647.4-0.1c-11.4,0-15.6-2.7-15.4-14.8c0.7-41.5,0.8-83.1,0-124.7
		c-0.2-12.6,3.6-15.9,16-15.8C2611.7,3267,2719.3,3266.8,2827,3266.8z"/>
	<path class="st0" d="M2771.6,1489.4c88.8,0,177.5,0.2,266.3-0.3c13.1-0.1,18.2,2.7,17.8,17c-1,41.5-0.6,83.1-0.1,124.6
		c0.1,10.6-3.3,13.7-13.8,13.7c-179.9-0.3-359.8-0.3-539.7,0.1c-11.7,0-14.1-4.2-14-14.8c0.5-41.5,0.7-83.1-0.1-124.7
		c-0.2-12.5,3.3-16,15.9-16C2593.1,1489.7,2682.4,1489.4,2771.6,1489.4z"/>
	<path class="st0" d="M2717.9,2911.5c70.4,0,140.7,0.3,211.1-0.3c13.4-0.1,16.7,4.3,16.5,17c-0.7,40.6-0.7,81.2,0,121.8
		c0.2,12-3.9,15-15.4,15c-142.2-0.3-284.3-0.3-426.5,0c-11.2,0-15.8-2.2-15.6-14.6c0.7-41.5,0.7-83.1,0-124.7
		c-0.2-11.3,3.4-14.4,14.5-14.4C2574.3,2911.7,2646.1,2911.5,2717.9,2911.5z"/>
	<path class="st0" d="M2659.8,1993.5c-52.4,0-104.8-0.3-157.2,0.2c-10.9,0.1-14.7-2.8-14.6-14.3c0.6-42,0.6-84,0-126
		c-0.2-10.9,3.7-13.4,13.9-13.4c105.3,0.3,210.5,0.3,315.8,0c10.3,0,14.1,2.6,13.9,13.4c-0.6,42.5-0.5,85,0,127.4
		c0.1,10.2-3.7,12.8-13.3,12.7C2765.5,1993.4,2712.7,1993.5,2659.8,1993.5z"/>
	<path class="st0" d="M2659.7,2197.5c51.9,0,103.9,0.3,155.8-0.2c11.9-0.1,16.6,2.4,16.3,15.5c-0.9,41.5-0.6,83.1-0.1,124.6
		c0.1,10.7-3.4,13.6-13.8,13.6c-105.3-0.3-210.5-0.3-315.8,0c-10.2,0-14.1-2.4-14-13.4c0.6-42.5,0.5-85,0-127.4
		c-0.1-10,3.3-12.9,13-12.8C2554,2197.7,2606.9,2197.5,2659.7,2197.5z"/>
	<path class="st0" d="M2661.3,2554.3c51.9,0,103.8,0.2,155.8-0.2c10.8-0.1,14.9,2.6,14.7,14.2c-0.6,42-0.6,84,0,126
		c0.1,10.9-3.7,13.4-14,13.4c-105.3-0.3-210.5-0.3-315.8,0c-10.3,0-14-2.5-13.9-13.4c0.6-42.5,0.5-85,0-127.4
		c-0.1-10.1,3.5-12.8,13.1-12.8C2554.6,2554.5,2607.9,2554.3,2661.3,2554.3z"/>
	<path class="st1" d="M3464.6,2575.8c28.8,0,57.6,0.6,86.4-0.3c11-0.4,14.8,2.8,17.5,13.4c26.6,104.9,78.3,195.8,157,270.3
		c95.9,90.9,209.9,148.6,339.2,173.1c169.3,32.1,337,24.1,498.4-39.3c190.9-74.9,319-209.9,375.2-409.4c2.6-9.4,6.1-12.4,16.1-12.3
		c59.5,0.6,119.1,0.8,178.6-0.1c13.5-0.2,15.2,3.9,13.7,15.7c-19,146.3-79,273.7-177.7,382.6c-132.7,146.4-293.2,247.4-487,292.2
		c-91.8,21.2-184.9,25.4-278.6,20c-113.3-6.6-223.6-28.3-328.6-72.2c-171.2-71.5-311-182.3-412.9-338.1c-44-67.3-78-139.8-96-219
		c-4.6-20.4-5.4-41-4.4-61.9c0.5-9.7,2.8-13.9,13.8-13.6c29.7,0.9,59.5,0.3,89.2,0.3C3464.6,2576.8,3464.6,2576.3,3464.6,2575.8z"/>
	<path class="st1" d="M3901.3,1987.6c0.4,133.4-109.1,243.4-242.7,243.8c-133.8,0.4-243.3-108.4-243.9-242.4
		c-0.6-134.2,108.7-244.2,243.2-244.7C3790.7,1743.9,3900.9,1854,3901.3,1987.6z"/>
	<path class="st1" d="M4488.2,1987.9c0.1-133.3,109.6-242.9,243.3-243.5c133.7-0.6,243.4,109.6,243.2,244.5
		c-0.1,133.7-109.8,242.9-243.5,242.6C4597.6,2231.1,4488.2,2121.4,4488.2,1987.9z"/>
</g>
</svg>
