<?xml version="1.0" encoding="utf-8"?>
<!-- Generator: Adobe Illustrator 22.0.0, SVG Export Plug-In . SVG Version: 6.00 Build 0)  -->
<svg version="1.1" id="Calque_1" xmlns="http://www.w3.org/2000/svg" xmlns:xlink="http://www.w3.org/1999/xlink" x="0px" y="0px"
	 viewBox="0 0 578.3 114.2" enable-background="new 0 0 578.3 114.2" xml:space="preserve">
<g>
	<path fill="#234B85" d="M344,18.9c7.3-9.3,15.3-14.7,25.7-16.3c15.1-2.4,29.5,4.5,34.6,16.7c1.8,4.3,2.2,8.8,2.2,13.4
		c0,19.4-0.1,38.8,0.1,58.3c0,3.7-1,4.8-4.7,4.7c-10.5-0.2-21-0.2-31.5,0c-3.6,0.1-4.4-1.1-4.4-4.5c0.2-14.9,0.1-29.7,0.1-44.6
		c0-2.1,0-4.2-0.2-6.3c-0.5-4.7-1.7-9.1-6.9-10.7c-5.3-1.6-9.5,0.6-13.4,4c-1.8,1.6-1.7,3.7-1.7,5.8c0,17.1-0.1,34.3,0.1,51.4
		c0,3.5-0.8,4.9-4.6,4.8c-10.3-0.3-20.7-0.2-31,0c-3.1,0.1-4.2-0.8-4.2-4.1c0.1-27.1,0.1-54.2,0-81.4c0-3.5,1.3-4,4.2-3.9
		c10.1,0.2,20.3,0.3,30.4-0.1c4.3-0.2,5.6,1.3,5,5.3C343.8,13.2,344,15.2,344,18.9z"/>
	<path fill="#234A86" d="M149.6,19c4.6-5.8,9-11.3,16-14.1c4.9-1.9,9.8-2.3,14.9-2c2,0.1,3.2,0.7,3.2,3.1c-0.1,10.1,0,20.2,0,30.3
		c-2.3,0.4-3.5-1.2-5-2c-4.9-2.7-10.1-3.9-15.7-3.5c-10.9,0.8-13.5,3.6-13.5,14.4c0,15.1-0.1,30.1,0.1,45.1c0.1,3.7-0.6,5.2-4.8,5.1
		c-10.3-0.3-20.7-0.2-31,0c-3.1,0.1-4.2-0.8-4.2-4.1c0.1-27.1,0.1-54.2,0-81.4c0-2.9,0.7-4,3.8-3.9c10.8,0.2,21.7,0.2,32.5,0
		c2.7,0,3.9,0.6,3.6,3.5C149.4,12.7,149.6,15.9,149.6,19z"/>
	<path fill="#B63336" d="M287.5,20.2C276,5.2,259.8,0.4,241.7,0c-10-0.1-19.4,2.2-28.5,6.2c-31.8,14-38.5,63-11.2,84.6
		c18.6,14.7,39.8,16.5,61.6,9.2C297.2,88.7,309.1,48.1,287.5,20.2z M255.1,68.3c-0.3,1.9-0.9,3.7-1.7,5.5c-2.4,5.8-6.5,8.6-12,8.5
		c-5.1-0.2-9.4-3.6-11.2-9.4c-2.8-9-3.2-18.2-2.6-27.5c0.3-4.9,1.1-9.7,2.7-14.4c2-5.7,6.8-9.6,11.9-9.6c5.2,0,9.2,3,11.5,9.1
		c2.5,6.8,2.8,14,2.9,22.8C256.8,57.2,256,62.7,255.1,68.3z"/>
	<path fill="#234C85" d="M101.1,34.5c-0.9-13.7-8.5-22.9-20.7-28.6C70.1,1,59.1,0.5,48,1.1C36.6,1.7,36.6,1.7,36.6,12.8
		c0,1,0.1,2.1,0,3.1c-0.5,3.9,0.5,5.3,5,5.2c12.9-0.3,20.8,9.3,19.2,22.6c-1.5-0.5-3-0.9-4.5-1.3c-13.8-3.7-27.3-4.1-40.3,2.8
		C3.9,51.6-2.4,66,0.8,80.3C4,94.3,15,103.5,29,104.1c10.3,0.5,19.8-1.7,28.8-6.6c2.7-1.5,5.4-2,8.5-2c10.5,0.1,21,0,31.5,0.1
		c2.4,0,4-0.1,3.9-3.3C101.3,73,102.4,53.7,101.1,34.5z M54.7,79.7c-6.1,3-12.7,0.9-15.1-4.6c-2.6-5.9,0.7-12.9,7.2-15.1
		c1.5-0.5,3.1-0.8,4.6-0.9c8.5-0.7,9.8,0.6,9.8,9.8C62.7,74,59.6,77.4,54.7,79.7z"/>
	<rect x="494" y="94.9" fill="#B73338" width="84.3" height="19.3"/>
	<path fill="#234C85" d="M484.9,4.8c-27.8-10.2-63.7,0.9-71.4,34.9c-4.6,20.6,2.1,42.6,17.3,53.9c0.8,0.6,1.5,1,2.3,1.4h50.7
		c0.1-0.1,0.1-0.2,0.1-0.4c0.6-3.6,0.9-7.4-0.2-10.9c-0.4-1.3-3.8-0.6-5.7-0.6c-12.5,0.1-23-7.1-25.1-17.3c-0.7-3.4-0.3-4.6,3.6-4.5
		c9.3,0.3,18.6,0.1,27.8,0.1c9.6,0,19.3,0,28.9,0c1.8,0,3.8,0.6,3.9-2.6C517.9,35.6,509.1,13.7,484.9,4.8z M478.8,39.8
		c-0.3,2.1-1.5,2-2.9,2c-3.9,0-7.7,0-11.5,0c-2.1,0-4.2,0-6.3,0c-8.1,0-8.1,0-5.7-8c2.5-8.5,8.1-12.3,15.8-10.8
		C474.3,24.4,479.6,32.9,478.8,39.8z"/>
</g>
</svg>
