<?xml version="1.0" encoding="utf-8"?>
<!-- Generator: Adobe Illustrator 22.0.0, SVG Export Plug-In . SVG Version: 6.00 Build 0)  -->
<svg version="1.1" id="Calque_3" xmlns="http://www.w3.org/2000/svg" xmlns:xlink="http://www.w3.org/1999/xlink" x="0px" y="0px"
	 viewBox="0 0 473.7 413.8" style="enable-background:new 0 0 473.7 413.8;" xml:space="preserve">
<style type="text/css">
	.st0{fill:#B1B6BC;}
	.st1{fill:#FFFFFF;}
	.st2{fill:#8F051F;stroke:#FFFFFF;stroke-miterlimit:10;}
</style>
<g>
	<path class="st0" d="M0,80.3c0.1,41.2,0.4,226.2,0.6,259.4c0.2,35.5,40,73.1,78.1,73.5c30.7,0.3,214.1,0.6,261,0.6
		c47,0,80.5-33.8,80.4-88.1s-0.3-219.8,0-245.2c0.6-48-39.9-80.3-80.9-80.4C310.5,0,125.7,0,89,0.1C34.8,0.2-0.1,39,0,80.3z"/>
	<circle class="st1" cx="117.1" cy="70.9" r="32"/>
	<path class="st1" d="M66.8,186.2c0-29.2,13.8-71.2,48.7-71.2s52.3,45.2,52.1,71.3C146.3,186.3,86.7,186.5,66.8,186.2z"/>
	<circle class="st1" cx="304.5" cy="70.9" r="32"/>
	<path class="st1" d="M254.3,186.2c0-29.2,13.8-71.2,48.7-71.2s52.3,45.2,52.1,71.3C333.7,186.3,274.1,186.5,254.3,186.2z"/>
	<circle class="st1" cx="117.6" cy="253.7" r="32"/>
	<path class="st1" d="M67.3,369c0-29.2,13.8-71.2,48.7-71.2s52.3,45.2,52.1,71.3C146.8,369,87.1,369.2,67.3,369z"/>
	<circle class="st1" cx="305" cy="253.7" r="32"/>
	<path class="st1" d="M254.7,369c0-29.2,13.8-71.2,48.7-71.2s52.3,45.2,52.1,71.3C334.2,369,274.5,369.2,254.7,369z"/>
	<polygon class="st2" points="473.7,163.9 434,134.4 434,149.9 393.8,149.9 309.3,234.3 265.5,234.3 265.5,268.5 315.8,268.5 
		406.4,177.8 434,177.8 434,193.4 	"/>
	<g>
		<polygon class="st2" points="473.7,251.9 434,222.4 434,237.4 408.3,237.4 377.6,206.7 357.3,227 395.7,265.5 395.8,265.4 
			395.8,265.5 434,265.5 434,281.4 		"/>
		<polygon class="st2" points="357.3,186.4 317.8,146.9 265.5,146.9 265.5,180.9 311.2,180.9 337,206.7 		"/>
	</g>
</g>
</svg>
