<?xml version="1.0" encoding="utf-8"?>
<!-- Generator: Adobe Illustrator 22.0.0, SVG Export Plug-In . SVG Version: 6.00 Build 0)  -->
<svg version="1.1" id="Calque_1" xmlns="http://www.w3.org/2000/svg" xmlns:xlink="http://www.w3.org/1999/xlink" x="0px" y="0px"
	 viewBox="0 0 1964.6 1964.6" style="enable-background:new 0 0 1964.6 1964.6;" xml:space="preserve">
<style type="text/css">
	.st0{fill:#9BCDFF;}
	.st1{fill:#42ABFC;}
</style>
<g>
	<circle class="st0" cx="982.3" cy="982.3" r="982.3"/>
	<g>
		<g>
			<path class="st1" d="M1613.5,399H351.1c-74.1,0-134.6,60.4-134.6,134.6V1431c0,73.9,60.2,134.6,134.6,134.6h1262.4
				c73.9,0,134.6-60.2,134.6-134.6V533.6C1748.1,459.6,1687.9,399,1613.5,399z M1594.9,488.7l-609.8,609.8l-615-609.8H1594.9z
				 M306.2,1412.5V551.7l432.2,428.5L306.2,1412.5z M369.7,1475.9l432.5-432.5l151.5,150.2c17.5,17.4,45.9,17.3,63.3-0.1
				l147.8-147.8l430.1,430.1H369.7z M1658.4,1412.5l-430.1-430.1l430.1-430.1V1412.5z"/>
		</g>
	</g>
</g>
</svg>
