<?xml version="1.0" encoding="utf-8"?>
<!-- Generator: Adobe Illustrator 22.0.0, SVG Export Plug-In . SVG Version: 6.00 Build 0)  -->
<svg version="1.1" id="Layer_1" xmlns="http://www.w3.org/2000/svg" xmlns:xlink="http://www.w3.org/1999/xlink" x="0px" y="0px"
	 viewBox="0 0 5292.3 6049.1" style="enable-background:new 0 0 5292.3 6049.1;" xml:space="preserve">
<style type="text/css">
	.st0{fill:#E1E4E6;}
	.st1{fill:#C9D0D7;}
	.st2{fill:#EF5541;}
	.st3{fill:#AFB6BC;}
	.st4{fill:#DFE2E4;}
	.st5{fill:#FEFEFE;}
	.st6{fill:#F05642;}
</style>
<g>
	<path class="st0" d="M4958.3,6052.9c-1285,0-2570.1,0-3855.1,0c-13.4-2.6-27.1-1.6-40.5-3.6c-54-8.1-102.4-30.4-145.8-62.3
		c-105.8-77.9-160.9-182.9-161.6-314.9c-0.7-116.6-0.2-233.2,0-349.8c0-9.1-2.4-19.2,6.9-26.1c9.3-2.7,18.8-1.5,28.2-1.5
		c1183.5-0.1,2367-0.1,3550.6-0.1c8.5,0,17,0.7,25.3-1.6c82.9-9.3,156.2-69,169.6-169.4c1.8-6.5,1.6-13.1,1.6-19.7
		c0-690.1,0-1380.2,0-2070.4c0-6.6,0.2-13.2-1.6-19.7c-11.2-87.8-71-154.4-165.5-169.4c-8.3-2.9-16.8-2-25.3-2
		c-1122.5,0-2244.9,0-3367.4,0c-7.1,0-14.2,0.5-21.2-0.3c-10.3-1.2-12.2-5.6-6.1-14.1c4.4-6.2,10.2-11.1,15.6-16.5
		c599.4-599.5,1199-1199.1,1798.7-1798.7c330-330,660.1-660.1,990.1-990.1c6.9-6.9,13.1-14.9,23.1-18.1c2.9,0.1,5.1,1.1,6.6,3.7
		c2.9,8.3,1.7,16.9,1.7,25.3c0.1,369.2,0.1,738.3,0.1,1107.5c0,7.5-0.4,15.1,1.6,22.5c3.5,58,19,112.8,49,162.5
		c63.3,104.7,154.8,168.2,277.1,185.2c5,1.4,10,2.6,15.2,1.3c9.8-0.1,19.7-0.9,29.5,1.2c8,2.6,13.1,9.1,18.7,14.7
		c368.3,368.3,736.6,736.6,1105,1104.8c5.4,5.4,10,11.2,13.4,18c0,1021.4,0,2042.8,0,3064.3c-2,35.5-8.9,69.8-23.1,102.6
		c-50.2,116.8-136.8,192.2-258.6,227.5C4995.9,6051,4976.8,6049.6,4958.3,6052.9z"/>
	<path class="st1" d="M5293.2,1514.3c0.9-0.2,1.7-0.1,2.5,0.3c0,378.9,0,757.8,0,1136.7c-4.2-3.8-8.6-7.3-12.6-11.3
		c-370-369.9-740-739.9-1109.9-1109.9c-4-4-7.6-8.4-11.4-12.6c4-5,9.8-5.3,15.4-5.6c5.7-0.3,11.3-0.2,17-0.2
		c357.5,0,714.9,0,1072.4-0.1C5275.5,1511.7,5284.4,1512.1,5293.2,1514.3z"/>
	<path class="st2" d="M760.2,5108.7c-188.5-0.1-377-0.1-565.5-0.3c-106.4-0.1-174-79-187.4-153.7c-2.3-13-3.6-26.1-3.6-39.4
		c0.1-626.9,0.1-1253.8,0.1-1880.8c0-102,68.8-180.6,169.8-193.9c5.6-1.7,11.3-0.8,16.9-0.8c183.3-0.1,366.6,1.8,549.9-1.1
		c60.7-1,121.5-4.3,182.2-2.8c381,9.1,762,2.2,1143,3.6c381.7,1.4,763.4,0.3,1145.1,0.3c381.2,0,762.5,0,1143.7,0
		c5.6,0,11.3-0.8,16.9,0.8c95.6,17.5,150.5,72.4,168,168c1.4,4.1,0.8,8.4,0.8,12.7c0,638.8,0,1277.7,0,1916.5c0,1.9,0,3.8-0.1,5.7
		c-4.9,91.7-84.7,154.9-155.2,166.5c-8.9,1.5-17.8,1.8-26.8,1.8c-1192.4,0-2384.7,0-3577.1,0
		C773.9,5111.7,766.8,5112.1,760.2,5108.7z"/>
	<path class="st0" d="M4371.4,2840.6c-1193.8-0.2-2387.5-0.3-3581.3-0.5c-197.5,0-394.9,0.1-592.4,0.2c-8,0-16,0.2-24,0.3
		c7-4.4,14.7-2.4,22.1-2.4c181.4-0.1,362.8-0.1,544.2-0.1c20.3,0,20.3,0,20.3-20.9c0-811.6-0.1-1623.2,0.1-2434.8
		c0-93.2,31.5-175,92.1-245.8C904.1,76.4,968.6,37,1045.2,17.1c26-6.7,52.4-10.8,79.5-10.8c883.9,0.2,1767.8,0.1,2651.6,0.2
		c-4.4,4.9-8.6,10-13.3,14.6C2829.1,955.1,1895.2,1889,961.3,2823c-4.1,4.1-9.3,0.9-11.2,7.5c6.2,2.6,12.1,0,18,0
		c1127.6,0.1,2255,7.8,3382.6,7.9C4357.6,2838.4,4364.9,2836.4,4371.4,2840.6z"/>
	<path class="st3" d="M5293.2,1514.3c-5.7,5.2-12.6,2.9-19,2.9c-364.7,0.1-729.3,0.1-1094,0.1c-6.1,0-12.3,0.1-18.4,0.1
		c-11.3,0-22.6-0.1-33.8-0.1c-4.3-3.2-9.8,0.3-14.2-2.5c-48.1-3.9-92.2-20.2-134.6-42.5c-40.3-21.1-73.3-51.1-103.4-84.2
		c-29.7-32.6-51.8-70.3-67.6-111.6c-13.4-34.8-22.9-70.4-23.5-108c-2.2-5-1.1-10.3-1.1-15.4c-0.1-377.2-0.1-754.4,0-1131.6
		c0-5.1-1.3-10.4,1.3-15.3c3.9,3.4,7.9,6.7,11.5,10.4c495.4,495.4,990.8,990.8,1486.2,1486.2
		C5286.2,1506.6,5289.6,1510.5,5293.2,1514.3z"/>
	<path class="st1" d="M760.2,5108.7c6.1-3.9,12.9-1.9,19.3-1.9c1188.4-0.1,2376.7-0.4,3565.1,0.5c98.2,0.1,180.4-71.9,192.1-159.6
		c0.2-1.3,1.3-2.5,1.9-3.7c2.1,2.4,1.6,5.3,1.6,8.1c0,56.1,0,112.2,0,168.3c0,2.8,0.4,5.7-1.3,8.2
		c-10.5,74.4-50.7,126.1-119.7,155.6c-15.1,6.5-30.9,11.4-47.7,11.7c-4.9,2.6-10.2,1.3-15.3,1.3c-1193.5,0.1-2387.1,0.1-3580.6,0
		c-5.1,0-10.4,1.4-15.3-1.4C760.3,5233.5,760.2,5171.1,760.2,5108.7z"/>
	<path class="st4" d="M760.3,5295.9c6.6,0,13.2,0.1,19.8,0.1c1197.1,0,2394.3,0,3591.4,0c-5.1,5.5-11.6,2.7-17.4,2.7
		c-674.6,0.2-1349.1,0.1-2023.7,0.1c-523.4,0-1046.8,0-1570.2,0C760.3,5297.9,760.3,5296.9,760.3,5295.9z"/>
	<path class="st4" d="M4538.9,5128.7c-0.1-61.5-0.2-123.1-0.2-184.6c0.4-26.4,1.2-52.9,1.2-79.3c0.1-607.4,0.1-1214.8,0-1822.2
		c0-11.3-0.3-22.6-0.5-34c3.6,4.6,2.2,10,2.2,15.1c0.1,696.8,0,1393.5,0,2090.3C4541.6,5118.9,4543.1,5124.4,4538.9,5128.7z"/>
	<path class="st4" d="M3784.8,6.4c-0.1,120.8-0.2,241.6-0.2,362.4c0,266.6,0,533.2,0,799.8c-4.7-5.9-2.5-12.8-2.5-19.2
		c-0.1-374.5-0.1-749-0.1-1123.4c0-6.6-0.1-13.2-0.1-19.8C3782.9,5,3783.9,4.9,3784.8,6.4z"/>
	<path class="st4" d="M4113.7,1514.9c4.8,0.1,10-1.4,14.2,2.5C4123.1,1517,4117.9,1518.9,4113.7,1514.9z"/>
	<path class="st5" d="M1845.4,4020.1c0-141.3,1.2-282.5-0.6-423.7c-0.7-59.5,50.4-96.5,94-100.2c12.7-1.1,25.5-0.6,38.2-0.6
		c114.3,0.1,228.7-1.1,342.9,0.7c237.3,3.8,423.1,155.1,474.8,388c35.8,161.1,13.3,314.1-79.7,452.5
		c-78.4,116.8-190.6,181.1-329.6,199.8c-30,4-60.1,5.2-90.4,5.1c-114.3-0.2-228.6-0.1-343-0.1c-23.6,0-46.1-4.3-66.2-17.1
		c-25.3-16-39.4-39.2-40.1-69.2c-0.8-33.5-0.4-67.1-0.4-100.6C1845.4,4243.1,1845.4,4131.6,1845.4,4020.1z"/>
	<path class="st5" d="M1113.4,3482.3c58.6,0,117.2-1.8,175.7,0.4c137.7,5.1,252,57.9,316.6,183.8c70,136.5,69.9,277.1-11.1,410.6
		c-54.5,89.9-140.4,137-242.6,155.9c-28,5.2-56.2,6.2-84.6,6.2c-74.6,0-149.2,0.4-223.8-0.4c-14.1-0.1-16.9,4.1-16.8,17.4
		c0.7,62.3,0.6,124.7,0.2,187c-0.3,53.5-34.2,93.6-82.6,98.6c-55.4,5.8-102.6-26.8-114.7-78.9c-1.8-7.9-2-15.9-2-23.9
		c0-283.8,0-567.6,0-851.5c0-60.7,44.8-105.2,105.7-105.2C993.5,3482.2,1053.4,3482.3,1113.4,3482.3z"/>
	<path class="st5" d="M3016.6,4018.3c0-138.4,0-276.8,0-415.2c0-69.6,37.3-107.3,107.6-107.5c93.1-0.3,186.1-0.1,279.2-0.1
		c83.1,0,166.3,0.1,249.4-0.1c19.1,0,37.8,2.1,55.3,10c31.5,14.2,50.1,38.6,53.1,72.9c3.5,38.6-11.3,70.2-42.2,93.7
		c-20,15.2-43.1,20.1-67.9,20.1c-138.9-0.2-277.8,0.1-416.6-0.4c-13.9-0.1-18.4,2.8-18.2,17.6c0.9,69,0.7,137.9,0.1,206.9
		c-0.1,11.9,3.4,15,15.1,14.9c120.9-0.4,241.9-0.3,362.8-0.2c56.7,0.1,107.8,44,114.7,97.8c3.9,30.7-9.2,54.3-31.6,73.3
		c-22.4,19-48.7,28.4-78.2,28.4c-122.3,0.1-244.7,0.2-367-0.3c-12.1,0-15.9,2.6-15.9,15.4c0.6,96.8,0.3,193.7,0.3,290.5
		c0,30.6-5,59.4-29.2,81.2c-33.6,30.3-72.4,29.6-111.5,15.2c-37.1-13.7-58.3-42-58.7-82c-0.9-96.4-0.5-192.7-0.6-289.1
		C3016.6,4113.8,3016.6,4066,3016.6,4018.3z"/>
	<path class="st6" d="M2044.3,4017.2c0-107.2,0.2-214.4-0.3-321.6c-0.1-12,2.2-15.8,15.2-15.7c78.9,0.7,157.7,0.3,236.6,0.4
		c155.8,0.1,273.7,96.7,303.7,250c20.5,104.8,6.1,204.2-53.4,294.3c-57.3,86.7-140,129.8-243.5,131.4c-81.2,1.2-162.5,0-243.7,0.5
		c-11.7,0.1-15-2.8-14.9-14.7C2044.5,4233.5,2044.3,4125.4,2044.3,4017.2z"/>
	<path class="st6" d="M1027.1,3860.6c0-58.6,0.2-117.1-0.2-175.7c-0.1-9.7,2.3-13,12.5-12.9c82.2,0.4,164.3-0.2,246.5,0.3
		c75.6,0.5,146.2,59.4,168.2,139c33.2,120.3-55.6,236.9-180.3,236.9c-77,0-154-0.4-230.9,0.3c-13.6,0.1-16.2-4.2-16-16.7
		C1027.5,3974.8,1027.1,3917.7,1027.1,3860.6z"/>
</g>
</svg>
