<?xml version="1.0" encoding="utf-8"?>
<!-- Generator: Adobe Illustrator 22.0.0, SVG Export Plug-In . SVG Version: 6.00 Build 0)  -->
<svg version="1.1" id="Calque_2_1_" xmlns="http://www.w3.org/2000/svg" xmlns:xlink="http://www.w3.org/1999/xlink" x="0px"
	 y="0px" viewBox="0 0 5003.1 4291.7" style="enable-background:new 0 0 5003.1 4291.7;" xml:space="preserve">
<style type="text/css">
	.st0{fill:#B0B5BB;}
	.st1{fill:#FEFEFE;}
	.st2{fill:#8F051F;}
</style>
<g>
	<path class="st0" d="M3572.5,4295c-346.8,0-693.5,0-1040.3,0c-4.4-4.1-9.9-2.5-14.9-2.5c-404.3-0.3-808.7,0.4-1213-2.4
		c-156.4-1.1-312.7-0.3-469.1-1.4c-37.6-0.3-75.3-3-112.7-9.4c-95.6-16.3-184.8-50.2-268.2-99c-169.5-99.1-301.6-233.5-385.5-412.6
		c-34-72.6-55.1-149-56.3-229.4c-2.4-164.8-0.7-329.6-2.4-494.5c-2-199.3-0.6-398.7-0.8-598.1c-0.1-153.5-0.3-307.1-0.7-460.6
		c-0.5-246.1-1.3-492.2-1.8-738.2c-0.3-137-0.1-274-0.5-411C6.2,789.5,9.8,743.4,18.5,698c38.9-202.5,141.8-366.4,303-493.3
		C488.2,73.7,681,14.6,890.8,6.8c56.6-2.1,113.4-0.8,170-0.8C1881.9,6,2703,6.1,3524,6.2c52.1,0,103.8,5,154.7,15.4
		C3877,62,4044,156.8,4174.7,312.2c118.6,140.9,178.4,304.9,185.3,488.4c1.6,42.5,0.4,85,0.6,127.5c-33,34.7-66.1,69.5-99.1,104.2
		c0-63.8-0.5-127.5,0.2-191.3c0.1-13.8-2.7-18.4-17.7-18.4c-1373.4,0.4-2746.7,0.4-4120.1,0c-14.3,0-18.1,3.6-18.1,18.1
		c0.4,871.6,0.4,1743.3,0,2614.9c0,14.5,3.9,18,18.2,18c1373.4-0.3,2746.7-0.3,4120.1,0c13.2,0,17.7-2.8,17.7-17
		c-0.4-565-0.3-1130.1-0.4-1695.1c0-5,1.5-10.5-2.1-15c31.9-51.6,63.5-103.3,98.5-152.8c0.1,2.4,0.3,4.7,0.3,7.1
		c0.2,433.2-0.8,866.3,1.8,1299.4c0.8,136,0.4,272.1,0.4,408.1c0,51,1.2,101.9-1.9,152.9c-4.8,78.9-16.2,156.6-37.4,232.8
		c-45.7,163.7-127.1,305.3-258.2,415.8c-128.4,108.2-278.1,164.4-444.2,180.2C3603.1,4291.4,3587.4,4289.7,3572.5,4295z"/>
	<path class="st0" d="M5004.3,525.3c0.8-0.6,1.7-0.7,2.6-0.3c0,130.4,0,260.8,0,391.2l-1.1,0.4l-1-0.6
		C5004.5,785.7,5004.4,655.5,5004.3,525.3z"/>
	<path class="st1" d="M4259.1,1746.4c3.6,4.6,2.1,10,2.1,15c0.1,565,0,1130.1,0.4,1695.1c0,14.1-4.5,17-17.7,17
		c-1373.4-0.3-2746.7-0.3-4120.1,0c-14.3,0-18.2-3.5-18.2-18c0.4-871.6,0.4-1743.3,0-2614.9c0-14.4,3.8-18.1,18.1-18.1
		c1373.4,0.3,2746.7,0.3,4120.1,0c15,0,17.9,4.6,17.7,18.4c-0.6,63.8-0.2,127.5-0.2,191.3c-1.5,1.8-2.8,3.7-4.4,5.5
		c-97.7,107.9-188.4,221.4-274,339.2c-222.6,306.3-412.4,632.5-583.7,969.7c-49.5,97.5-96.9,195.9-140.9,296
		c-3.6,8.3-7.8,11.3-16.7,10.9c-16.5-0.7-33.1-0.6-49.6,0c-7.9,0.3-12.9-2.4-17.8-8.6c-128.4-160.3-257.2-320.3-385.5-480.7
		c-6.5-8.2-9.8-8.6-18.1-1.9c-158.4,127.7-317.1,255.1-476.1,382.1c-10.5,8.4-8.5,13-1.5,21.8c107.6,133.4,214.9,267.1,322.2,400.7
		c103.8,129.2,207.5,258.4,311.2,387.7c4,5,7.9,8,15,8c189.9-0.2,379.8-0.2,569.7-0.1c6.5,0,9.6-1.3,11.6-8.4
		c24.6-88.6,55.8-174.9,88.1-260.9c123.2-327.5,265.8-646.4,427.4-956.8C4107.5,2003.9,4180.5,1873.6,4259.1,1746.4z M1264.2,3016.6
		c0,0.1,0,0.2,0,0.3c57.6,0,115.3,0,172.9,0c122.4,0,244.7-0.2,367.1,0.3c13.2,0.1,17.6-3.8,16.4-16.8c-2.5-27.7-2.7-55.7-6.4-83.2
		c-17.8-132.3-57.1-257.8-121.8-374.8c-40.9-74.1-90.7-141.4-155.4-196.9c-93.8-80.3-201-120.9-325.7-111.7
		c-71.8,5.3-137.7,27-197.7,66.4c-84.5,55.4-144.3,132.3-189.7,221.1c-76.8,150.3-110.9,311.1-114.9,479
		c-0.3,13.1,3.6,16.6,16.6,16.5C905.1,3016.5,1084.6,3016.6,1264.2,3016.6z M1263.4,2098.2c188.9,1.6,350-151.1,352.2-347.6
		c2.2-196.4-152-356.7-351.9-356.8c-203.7-0.2-352.6,163.4-353,351.6C910.3,1944.4,1073.6,2100.4,1263.4,2098.2z M2900.7,1395.5
		c-201.2,0-402.5,0-603.7,0c-19.6,0-19.6,0-19.6,20.2c0,35,0,69.9,0,104.9c0,18.8,0,18.8,19.5,18.8c78.9,0,157.8,0,236.7,0
		c322.2,0,644.4,0,966.5,0c23.4,0,20.9,2.1,21-21.6c0.1-34.5,0-69,0-103.5c0-18.8,0-18.8-19.5-18.8
		C3301.3,1395.5,3101,1395.5,2900.7,1395.5z M2831.3,1727.2c-170.5,0-341,0.2-511.5-0.3c-13.8,0-17.5,4-17.2,17.5
		c0.9,37.3,0.8,74.6,0,111.9c-0.2,12,3.8,15,15.4,15c342-0.3,683.9-0.3,1025.9,0c11.6,0,15.7-3.5,15.5-15.3
		c-0.6-36.4-0.2-72.7-0.2-109.1c0-19.7,0-19.7-19.2-19.7C3170.5,1727.2,3000.9,1727.2,2831.3,1727.2z M2464.4,2058.6
		c-49.6,0-99.1,0.2-148.7-0.2c-9.9-0.1-13.1,3.1-12.9,12.9c0.5,39.2,0.5,78.4,0,117.5c-0.1,10.9,4.2,13.7,14.2,13.6
		c98.2-0.2,196.4-0.3,294.6,0c10.8,0,13.8-4.1,13.7-14.2c-0.4-38.2-0.6-76.5,0.1-114.7c0.2-11.6-3-15.5-15-15.3
		C2561.6,2058.9,2513,2058.6,2464.4,2058.6z M3147.3,2058.6c-33.5,0-67,0.3-100.5-0.2c-9.5-0.1-13.4,2.4-13.3,12.6
		c0.5,39.6,0.4,79.3,0,119c-0.1,9,2.6,12.6,12,12.5c67-0.3,134.1-0.3,201.1,0c9.5,0,13.6-2.9,13.5-13c-0.4-39.6-0.4-79.3,0-119
		c0.1-9.2-3-12.3-12.3-12.2C3214.4,2058.8,3180.8,2058.6,3147.3,2058.6z M2409.3,3042.2c-29.7,0-59.5,0.4-89.2-0.2
		c-10.1-0.2-14.3,2.2-14.2,13.3c0.6,39.2,0.4,78.3,0.1,117.5c-0.1,9.6,3.1,13.4,13,13.4c59.9-0.3,119.9-0.3,179.8,0
		c9.6,0,13.4-3,13.3-13.1c-0.4-39.6-0.4-79.3,0-118.9c0.1-9.3-3.2-12.2-12.3-12.1C2469.7,3042.5,2439.5,3042.2,2409.3,3042.2z"/>
	<path class="st2" d="M4259.1,1746.4c-78.6,127.1-151.6,257.5-220.6,390c-161.6,310.4-304.2,629.2-427.4,956.8
		c-32.3,86-63.5,172.4-88.1,260.9c-2,7-5.1,8.4-11.6,8.4c-189.9-0.1-379.8-0.2-569.7,0.1c-7.2,0-11-3-15-8
		c-103.7-129.3-207.4-258.5-311.2-387.7c-107.3-133.6-214.6-267.3-322.2-400.7c-7.1-8.8-9.1-13.4,1.5-21.8
		c159-127,317.7-254.4,476.1-382.1c8.2-6.6,11.6-6.2,18.1,1.9c128.3,160.4,257,320.4,385.5,480.7c4.9,6.2,9.9,8.8,17.8,8.6
		c16.5-0.6,33.1-0.7,49.6,0c8.9,0.4,13.1-2.6,16.7-10.9c44-100.1,91.4-198.6,140.9-296c171.3-337.2,361-663.4,583.7-969.7
		c85.5-117.7,176.2-231.3,274-339.2c1.6-1.7,2.9-3.6,4.4-5.5c33-34.7,66.1-69.5,99.1-104.2c50.4-46.9,99.9-94.7,153.1-138.4
		c113.8-93.6,234.9-175.2,373.2-228.7c38.2-14.8,77-27.8,117.4-35.6c0.1,130.2,0.3,260.5,0.4,390.7
		c-92.9,52.6-176.2,117.9-253.2,191.5c-120.2,114.9-224.1,243.6-320.5,378.7c-25.2,35.3-50.6,70.4-73.2,107.4
		C4322.6,1643.1,4291,1694.9,4259.1,1746.4z"/>
	<path class="st0" d="M1264.2,3016.6c-179.5,0-359-0.1-538.6,0.3c-13,0-16.9-3.4-16.6-16.5c3.9-168,38.1-328.7,114.9-479
		c45.4-88.8,105.2-165.7,189.7-221.1c60-39.3,126-61,197.7-66.4c124.7-9.3,231.9,31.3,325.7,111.7
		c64.7,55.4,114.5,122.8,155.4,196.9c64.6,117.1,104,242.6,121.8,374.8c3.7,27.5,3.9,55.5,6.4,83.2c1.2,13-3.2,16.8-16.4,16.8
		c-122.4-0.5-244.7-0.3-367.1-0.3c-57.6,0-115.3,0-172.9,0C1264.2,3016.8,1264.2,3016.7,1264.2,3016.6z"/>
	<path class="st0" d="M1263.4,2098.2c-189.8,2.2-353.1-153.8-352.6-352.9c0.4-188.2,149.3-351.7,353-351.6
		c199.8,0.2,354,160.5,351.9,356.8C1613.5,1947.1,1452.3,2099.8,1263.4,2098.2z"/>
	<path class="st0" d="M2900.7,1395.5c200.3,0,400.6,0,600.9,0c19.5,0,19.5,0,19.5,18.8c0,34.5,0.1,69,0,103.5
		c-0.1,23.7,2.4,21.6-21,21.6c-322.2,0-644.4,0-966.5,0c-78.9,0-157.8,0-236.7,0c-19.5,0-19.5,0-19.5-18.8c0-35,0-69.9,0-104.9
		c0-20.2,0-20.2,19.6-20.2C2498.3,1395.5,2699.5,1395.5,2900.7,1395.5z"/>
	<path class="st0" d="M2831.3,1727.2c169.6,0,339.1,0,508.7,0c19.1,0,19.2,0,19.2,19.7c0,36.4-0.4,72.7,0.2,109.1
		c0.2,11.8-3.9,15.3-15.5,15.3c-342-0.3-683.9-0.3-1025.9,0c-11.5,0-15.6-2.9-15.4-15c0.7-37.3,0.8-74.6,0-111.9
		c-0.3-13.5,3.4-17.6,17.2-17.5C2490.3,1727.3,2660.8,1727.2,2831.3,1727.2z"/>
	<path class="st0" d="M2464.4,2058.6c48.6,0,97.3,0.4,145.9-0.3c12-0.2,15.2,3.7,15,15.3c-0.6,38.2-0.5,76.5-0.1,114.7
		c0.1,10.2-2.9,14.3-13.7,14.2c-98.2-0.3-196.4-0.3-294.6,0c-10.1,0-14.4-2.8-14.2-13.6c0.5-39.2,0.5-78.4,0-117.5
		c-0.1-9.9,3-13,12.9-12.9C2365.3,2058.8,2414.8,2058.6,2464.4,2058.6z"/>
	<path class="st0" d="M3147.3,2058.6c33.5,0,67,0.3,100.5-0.2c9.3-0.1,12.4,3,12.3,12.2c-0.4,39.6-0.4,79.3,0,119
		c0.1,10.1-3.9,13-13.5,13c-67-0.3-134.1-0.3-201.1,0c-9.4,0-12.1-3.5-12-12.5c0.4-39.6,0.4-79.3,0-119
		c-0.1-10.2,3.8-12.8,13.3-12.6C3080.3,2058.8,3113.8,2058.6,3147.3,2058.6z"/>
	<path class="st0" d="M2409.3,3042.2c30.2,0,60.4,0.3,90.6-0.2c9.2-0.1,12.4,2.8,12.3,12.1c-0.4,39.6-0.4,79.3,0,118.9
		c0.1,10-3.8,13.1-13.3,13.1c-59.9-0.3-119.9-0.3-179.8,0c-10,0.1-13.1-3.8-13-13.4c0.3-39.2,0.5-78.3-0.1-117.5
		c-0.2-11.1,4.1-13.4,14.2-13.3C2349.8,3042.5,2379.5,3042.2,2409.3,3042.2z"/>
</g>
</svg>
